<svg xmlns="http://www.w3.org/2000/svg" xmlns:xlink="http://www.w3.org/1999/xlink" width="1920" zoomAndPan="magnify" viewBox="0 0 1440 809.999993" height="1080" preserveAspectRatio="xMidYMid meet" version="1.0"><defs><filter x="0%" y="0%" width="100%" height="100%" id="c3712733d5"><feColorMatrix values="0 0 0 0 1 0 0 0 0 1 0 0 0 0 1 0 0 0 1 0" color-interpolation-filters="sRGB"/></filter><mask id="e1fbaa3038"><g filter="url(#c3712733d5)"><rect x="-144" width="1728" fill="#000000" y="-80.999999" height="971.999992" fill-opacity="0.21"/></g></mask><clipPath id="f6718475af"><path d="M 0.121094 0.199219 L 26 0.199219 L 26 17 L 0.121094 17 Z M 0.121094 0.199219 " clip-rule="nonzero"/></clipPath><clipPath id="b4a886aa51"><rect x="0" width="27" y="0" height="18"/></clipPath><mask id="a04f55aa20"><g filter="url(#c3712733d5)"><rect x="-144" width="1728" fill="#000000" y="-80.999999" height="971.999992" fill-opacity="0.21"/></g></mask><clipPath id="2303f462a5"><path d="M 0.519531 0.28125 L 16 0.28125 L 16 14.921875 L 0.519531 14.921875 Z M 0.519531 0.28125 " clip-rule="nonzero"/></clipPath><clipPath id="aa1ccbfa29"><rect x="0" width="17" y="0" height="15"/></clipPath><mask id="844a4ce5ad"><g filter="url(#c3712733d5)"><rect x="-144" width="1728" fill="#000000" y="-80.999999" height="971.999992" fill-opacity="0.21"/></g></mask><clipPath id="0530cc853a"><path d="M 0 1 L 23.519531 1 L 23.519531 17.679688 L 0 17.679688 Z M 0 1 " clip-rule="nonzero"/></clipPath><clipPath id="0cbde858f0"><rect x="0" width="24" y="0" height="18"/></clipPath><mask id="0d5e65a7fd"><g filter="url(#c3712733d5)"><rect x="-144" width="1728" fill="#000000" y="-80.999999" height="971.999992" fill-opacity="0.38"/></g></mask><clipPath id="c678184771"><path d="M 0.160156 0 L 108.640625 0 L 108.640625 127.921875 L 0.160156 127.921875 Z M 0.160156 0 " clip-rule="nonzero"/></clipPath><clipPath id="800c96ad9e"><rect x="0" width="109" y="0" height="128"/></clipPath><mask id="8eb3b18bed"><g filter="url(#c3712733d5)"><rect x="-144" width="1728" fill="#000000" y="-80.999999" height="971.999992" fill-opacity="0.21"/></g></mask><clipPath id="3ae80b77af"><path d="M 0.160156 0.078125 L 17 0.078125 L 17 13.519531 L 0.160156 13.519531 Z M 0.160156 0.078125 " clip-rule="nonzero"/></clipPath><clipPath id="4c4e6e33b3"><rect x="0" width="18" y="0" height="14"/></clipPath><mask id="ec607fc827"><g filter="url(#c3712733d5)"><rect x="-144" width="1728" fill="#000000" y="-80.999999" height="971.999992" fill-opacity="0.21"/></g></mask><clipPath id="bf88bae770"><path d="M 0.441406 1 L 31.878906 1 L 31.878906 17.878906 L 0.441406 17.878906 Z M 0.441406 1 " clip-rule="nonzero"/></clipPath><clipPath id="7213567054"><rect x="0" width="32" y="0" height="18"/></clipPath><mask id="514dffd94b"><g filter="url(#c3712733d5)"><rect x="-144" width="1728" fill="#000000" y="-80.999999" height="971.999992" fill-opacity="0.21"/></g></mask><clipPath id="7e6fb62927"><path d="M 0.121094 0.199219 L 30 0.199219 L 30 17 L 0.121094 17 Z M 0.121094 0.199219 " clip-rule="nonzero"/></clipPath><clipPath id="911c26c6dc"><rect x="0" width="31" y="0" height="18"/></clipPath><mask id="54ae1888da"><g filter="url(#c3712733d5)"><rect x="-144" width="1728" fill="#000000" y="-80.999999" height="971.999992" fill-opacity="0.38"/></g></mask><clipPath id="0259b752d0"><path d="M 0.238281 0.558594 L 109.921875 0.558594 L 109.921875 179.359375 L 0.238281 179.359375 Z M 0.238281 0.558594 " clip-rule="nonzero"/></clipPath><clipPath id="b04cceea73"><rect x="0" width="110" y="0" height="180"/></clipPath><mask id="f9b7173755"><g filter="url(#c3712733d5)"><rect x="-144" width="1728" fill="#000000" y="-80.999999" height="971.999992" fill-opacity="0.38"/></g></mask><clipPath id="29697bf646"><path d="M 0.121094 1 L 477.480469 1 L 477.480469 158 L 0.121094 158 Z M 0.121094 1 " clip-rule="nonzero"/></clipPath><clipPath id="ef627c68ab"><rect x="0" width="478" y="0" height="159"/></clipPath><mask id="de61d198a3"><g filter="url(#c3712733d5)"><rect x="-144" width="1728" fill="#000000" y="-80.999999" height="971.999992" fill-opacity="0.38"/></g></mask><clipPath id="8cd7cdded8"><path d="M 1 1 L 81.960938 1 L 81.960938 55.921875 L 1 55.921875 Z M 1 1 " clip-rule="nonzero"/></clipPath><clipPath id="7e1b670e3e"><rect x="0" width="82" y="0" height="56"/></clipPath><mask id="bcac82f187"><g filter="url(#c3712733d5)"><rect x="-144" width="1728" fill="#000000" y="-80.999999" height="971.999992" fill-opacity="0.21"/></g></mask><clipPath id="8892aa88b5"><path d="M 0.199219 0.121094 L 21 0.121094 L 21 15.960938 L 0.199219 15.960938 Z M 0.199219 0.121094 " clip-rule="nonzero"/></clipPath><clipPath id="a4b2a5e5b2"><rect x="0" width="22" y="0" height="16"/></clipPath><mask id="b68522333e"><g filter="url(#c3712733d5)"><rect x="-144" width="1728" fill="#000000" y="-80.999999" height="971.999992" fill-opacity="0.21"/></g></mask><clipPath id="1aef2d9109"><path d="M 0.199219 1 L 31.878906 1 L 31.878906 19 L 0.199219 19 Z M 0.199219 1 " clip-rule="nonzero"/></clipPath><clipPath id="53b32dd4c2"><rect x="0" width="32" y="0" height="20"/></clipPath><mask id="3136d420a0"><g filter="url(#c3712733d5)"><rect x="-144" width="1728" fill="#000000" y="-80.999999" height="971.999992" fill-opacity="0.21"/></g></mask><clipPath id="3aefd19117"><path d="M 1 1 L 22.921875 1 L 22.921875 18 L 1 18 Z M 1 1 " clip-rule="nonzero"/></clipPath><clipPath id="1ef4047337"><rect x="0" width="23" y="0" height="18"/></clipPath><mask id="d4288be220"><g filter="url(#c3712733d5)"><rect x="-144" width="1728" fill="#000000" y="-80.999999" height="971.999992" fill-opacity="0.38"/></g></mask><clipPath id="8db02f6982"><path d="M 1 0.121094 L 83 0.121094 L 83 165.71875 L 1 165.71875 Z M 1 0.121094 " clip-rule="nonzero"/></clipPath><clipPath id="649a5f1cd7"><rect x="0" width="84" y="0" height="166"/></clipPath><mask id="bec1d19cff"><g filter="url(#c3712733d5)"><rect x="-144" width="1728" fill="#000000" y="-80.999999" height="971.999992" fill-opacity="0.21"/></g></mask><clipPath id="61431191f2"><path d="M 1 0 L 17.839844 0 L 17.839844 13 L 1 13 Z M 1 0 " clip-rule="nonzero"/></clipPath><clipPath id="fd7d3efc57"><rect x="0" width="18" y="0" height="14"/></clipPath><mask id="89441c74d5"><g filter="url(#c3712733d5)"><rect x="-144" width="1728" fill="#000000" y="-80.999999" height="971.999992" fill-opacity="0.21"/></g></mask><clipPath id="b5220a9e18"><path d="M 1 1 L 23.839844 1 L 23.839844 17 L 1 17 Z M 1 1 " clip-rule="nonzero"/></clipPath><clipPath id="203d664428"><rect x="0" width="24" y="0" height="18"/></clipPath><mask id="07bd94a287"><g filter="url(#c3712733d5)"><rect x="-144" width="1728" fill="#000000" y="-80.999999" height="971.999992" fill-opacity="0.21"/></g></mask><clipPath id="dc0352a94e"><path d="M 0.519531 0 L 24.28125 0 L 24.28125 18 L 0.519531 18 Z M 0.519531 0 " clip-rule="nonzero"/></clipPath><clipPath id="bc0df51072"><rect x="0" width="25" y="0" height="19"/></clipPath></defs><path stroke-linecap="round" transform="matrix(0.650661, 0.0363776, -0.0363776, 0.650661, 1122.103774, 410.724407)" fill-opacity="1" fill="#6f7d88" fill-rule="nonzero" stroke-linejoin="round" d="M 15.89279 -12.153822 C 31.72462 44.660782 47.562434 101.47505 63.394264 158.289654 C 38.4681 130.055918 24.971587 93.642756 14.596282 57.433313 C 4.221311 21.229855 -3.682575 -15.982268 -19.708561 -50.068732 C -33.370062 -79.124373 -52.829073 -105.676608 -61.828276 -136.493789 C -63.654881 -142.749384 -64.723546 -150.37413 -60.157028 -155.030011 C -53.529449 -161.800292 -41.243901 -156.603721 -34.540251 -152.241743 C -26.895755 -147.265977 -24.262721 -135.928471 -21.049671 -127.961345 C -11.310004 -103.765409 -3.316371 -78.907526 4.04358 -53.894143 C 8.121537 -40.013887 12.009989 -26.087014 15.89279 -12.153822 Z M 15.89279 -12.153822 " stroke="#000000" stroke-width="6" stroke-opacity="1" stroke-miterlimit="4"/><path stroke-linecap="round" transform="matrix(0.650661, 0.0363776, -0.0363776, 0.650661, 1153.368236, 527.638409)" fill-opacity="1" fill="#3b4144" fill-rule="nonzero" stroke-linejoin="round" d="M 17.956117 -10.071802 C 20.461076 8.639172 10.793675 31.050453 9.474976 49.879147 C -0.768014 34.398431 -10.691649 19.368135 -15.093532 0.553092 C -18.235032 -12.899239 -23.166856 -41.944653 -7.326246 -48.971872 C 8.608113 -56.040354 16.655292 -19.808811 17.956117 -10.071802 Z M 17.956117 -10.071802 " stroke="#000000" stroke-width="6" stroke-opacity="1" stroke-miterlimit="4"/><path stroke-linecap="round" transform="matrix(0.651677, 0, 0, 0.651677, 965.00919, 524.217474)" fill-opacity="1" fill="#6f7d88" fill-rule="nonzero" stroke-linejoin="round" d="M -94.703685 -77.640263 C -52.984403 -44.408697 -30.488359 9.50868 -29.403418 62.832636 C -28.312483 116.156592 -29.199617 176.811394 -75.936002 213.477608 C -85.059098 220.634623 -88.985266 236.177453 -81.990094 245.420432 C -77.698282 251.090897 -69.911882 252.535487 -62.856768 253.464581 C -36.818181 256.875252 -10.59977 258.907269 15.654606 259.548643 C 33.966733 259.998204 54.550644 258.823351 66.922569 245.312537 C 79.14464 231.957571 78.671102 211.625415 76.800927 193.61899 C 72.575052 153.068567 64.938505 112.697968 65.579879 71.931756 C 66.461019 15.682654 72.982654 -41.129897 82.801071 -96.521835 C 92.613494 -151.913773 105.141267 -209.433634 79.738061 -259.622649 " stroke="#000000" stroke-width="6" stroke-opacity="1" stroke-miterlimit="4"/><g mask="url(#e1fbaa3038)"><g transform="matrix(1, 0, 0, 1, 939, 673)"><g clip-path="url(#b4a886aa51)"><g clip-path="url(#f6718475af)"><path fill="#ffffff" d="M 2.328125 13.726562 C 8.734375 18.21875 17.285156 17.523438 23.160156 12.035156 C 24.046875 11.210938 24.886719 10.261719 25.40625 9.054688 C 25.925781 7.84375 26.078125 6.328125 25.570312 5.109375 C 25.082031 3.917969 24.074219 3.203125 23.082031 2.679688 C 18.855469 0.445312 14.074219 0.496094 9.511719 1.167969 C 7.566406 1.457031 5.585938 1.867188 3.871094 3.039062 C 2.15625 4.207031 0.730469 6.28125 0.570312 8.691406 C 0.445312 10.609375 1.175781 12.582031 2.429688 13.71875 " fill-opacity="1" fill-rule="nonzero"/></g></g></g></g><path stroke-linecap="round" transform="matrix(0.651677, 0, 0, 0.651677, 943.494679, 673.762378)" fill="none" stroke-linejoin="round" d="M 6.03828 -8.656564 C -0.37546 -5.179957 -4.990955 1.437584 -6.039932 8.65454 " stroke="#000000" stroke-width="6" stroke-opacity="1" stroke-miterlimit="4"/><path stroke-linecap="round" transform="matrix(0.651677, 0, 0, 0.651677, 971.613821, 675.330922)" fill="none" stroke-linejoin="round" d="M 4.171099 -12.016568 C -2.344541 -6.076366 -5.431528 3.376408 -3.687231 12.019972 " stroke="#000000" stroke-width="6" stroke-opacity="1" stroke-miterlimit="4"/><g mask="url(#a04f55aa20)"><g transform="matrix(1, 0, 0, 1, 911, 671)"><g clip-path="url(#aa1ccbfa29)"><g clip-path="url(#2303f462a5)"><path fill="#ffffff" d="M 15.828125 8.339844 C 15.679688 0.101562 -0.582031 -3.144531 1.078125 7.277344 C 2.429688 15.765625 15.992188 17.382812 15.828125 8.339844 Z M 15.828125 8.339844 " fill-opacity="1" fill-rule="nonzero"/></g></g></g></g><g mask="url(#844a4ce5ad)"><g transform="matrix(1, 0, 0, 1, 972, 674)"><g clip-path="url(#0cbde858f0)"><g clip-path="url(#0530cc853a)"><path fill="#ffffff" d="M 1.03125 11.3125 C 0.507812 10.136719 0.148438 8.777344 0.292969 7.4375 C 0.441406 6.085938 1.085938 4.882812 1.902344 3.992188 C 2.984375 2.800781 4.355469 2.097656 5.761719 1.726562 C 7.164062 1.359375 8.605469 1.308594 10.039062 1.296875 C 12.066406 1.28125 14.101562 1.347656 16.09375 1.816406 C 18.085938 2.28125 20.042969 3.171875 21.679688 4.679688 C 22.277344 5.230469 22.851562 5.902344 23.09375 6.789062 C 23.503906 8.300781 22.832031 9.941406 21.996094 11.140625 C 20.335938 13.511719 18.003906 15 15.589844 15.847656 C 11.582031 17.246094 6.902344 17.996094 3.363281 14.640625 C 2.417969 13.742188 1.613281 12.613281 1.03125 11.3125 Z M 1.03125 11.3125 " fill-opacity="1" fill-rule="nonzero"/></g></g></g></g><g mask="url(#0d5e65a7fd)"><g transform="matrix(1, 0, 0, 1, 908, 450)"><g clip-path="url(#800c96ad9e)"><g clip-path="url(#c678184771)"><path fill="#3b4144" d="M 39.273438 106.808594 C 39.550781 110.59375 39.65625 114.578125 41.582031 117.847656 C 44.808594 123.324219 51.855469 124.929688 58.117188 126.015625 C 64.195312 127.070312 70.363281 128.125 76.507812 127.5625 C 82.652344 127 88.878906 124.613281 92.804688 119.855469 C 97.09375 114.660156 98.039062 107.558594 98.816406 100.867188 C 101.886719 74.433594 104.957031 47.996094 108.03125 21.558594 C 108.660156 16.125 109.097656 9.996094 105.554688 5.824219 C 102.503906 2.222656 97.414062 1.242188 92.71875 0.742188 C 68.878906 -1.792969 44.402344 2.523438 22.746094 12.761719 C 18.710938 14.671875 3.378906 18.410156 0.90625 22.320312 C -1.738281 26.507812 5.898438 32.09375 8.023438 35.722656 C 14.292969 46.417969 23.722656 55.101562 28.644531 66.492188 C 34.175781 79.304688 38.242188 92.839844 39.273438 106.808594 Z M 39.273438 106.808594 " fill-opacity="1" fill-rule="nonzero"/></g></g></g></g><path stroke-linecap="round" transform="matrix(0.651677, 0, 0, 0.651677, 594.140376, 536.323001)" fill-opacity="1" fill="#6f7d88" fill-rule="nonzero" stroke-linejoin="round" d="M 111.227824 -271.35329 C 123.21013 -216.96837 103.399465 -161.282719 85.98646 -108.384347 C 48.187351 6.439585 20.266602 128.570387 40.694664 247.710107 C 42.013377 255.418584 43.499926 263.564633 40.736623 270.877496 C 37.55373 279.317259 27.981073 281.031585 19.229614 283.231438 C 10.484149 285.437285 -8.433387 285.569157 -15.434554 279.569013 C -38.434107 291.569301 -61.433659 291.569301 -77.432045 278.56799 C -83.743885 287.547226 -108.337881 287.121642 -112.9294 277.15337 C -117.526913 267.179105 -113.450891 255.148847 -106.713466 246.481306 C -99.976042 237.81976 -90.852946 231.33409 -83.378241 223.295935 C -66.966259 205.643164 -59.371672 181.246975 -57.62138 157.20444 C -55.871088 133.161905 -59.449596 109.095394 -62.728396 85.208707 C -78.27722 -28.116688 -86.716983 -146.447198 -48.654132 -254.317917 C -44.72197 -265.455047 -42.947701 -277.155627 -39.477089 -288.448606 " stroke="#000000" stroke-width="6" stroke-opacity="1" stroke-miterlimit="4"/><path stroke-linecap="round" transform="matrix(0.651677, 0, 0, 0.651677, 548.586843, 706.135712)" fill="none" stroke-linejoin="round" d="M 4.386329 -6.1005 C -0.558845 -4.200355 -4.155335 0.80476 -4.389107 6.103589 " stroke="#000000" stroke-width="6" stroke-opacity="1" stroke-miterlimit="4"/><path stroke-linecap="round" transform="matrix(0.651677, 0, 0, 0.651677, 582.168433, 705.762296)" fill="none" stroke-linejoin="round" d="M 0.916393 -8.446644 C -1.193548 -3.11185 -1.49925 2.924259 0.0712175 8.44487 " stroke="#000000" stroke-width="6" stroke-opacity="1" stroke-miterlimit="4"/><g mask="url(#8eb3b18bed)"><g transform="matrix(1, 0, 0, 1, 524, 706)"><g clip-path="url(#4c4e6e33b3)"><g clip-path="url(#3ae80b77af)"><path fill="#ffffff" d="M 15.1875 10.773438 C 10.046875 17.214844 -4.824219 9.871094 2.847656 2.625 C 9.09375 -3.28125 20.832031 3.707031 15.1875 10.773438 Z M 15.1875 10.773438 " fill-opacity="1" fill-rule="nonzero"/></g></g></g></g><g mask="url(#ec607fc827)"><g transform="matrix(1, 0, 0, 1, 547, 705)"><g clip-path="url(#7213567054)"><g clip-path="url(#bf88bae770)"><path fill="#ffffff" d="M 2.726562 4.289062 C 10.640625 -0.203125 21.199219 0.492188 28.457031 5.980469 C 29.550781 6.804688 30.589844 7.753906 31.230469 8.960938 C 31.871094 10.171875 32.058594 11.6875 31.433594 12.90625 C 30.828125 14.09375 29.585938 14.8125 28.359375 15.335938 C 23.140625 17.570312 17.234375 17.519531 11.601562 16.847656 C 9.195312 16.558594 6.75 16.148438 4.632812 14.976562 C 2.515625 13.808594 0.757812 11.734375 0.558594 9.324219 C 0.402344 7.40625 1.304688 5.433594 2.855469 4.296875 " fill-opacity="1" fill-rule="nonzero"/></g></g></g></g><g mask="url(#514dffd94b)"><g transform="matrix(1, 0, 0, 1, 585, 703)"><g clip-path="url(#911c26c6dc)"><g clip-path="url(#7e6fb62927)"><path fill="#ffffff" d="M 1.65625 6.640625 C 0.988281 7.816406 0.535156 9.175781 0.71875 10.515625 C 0.90625 11.867188 1.722656 13.070312 2.753906 13.960938 C 4.125 15.152344 5.863281 15.855469 7.640625 16.226562 C 9.417969 16.59375 11.242188 16.644531 13.054688 16.65625 C 15.621094 16.671875 18.199219 16.605469 20.71875 16.136719 C 23.242188 15.671875 25.714844 14.78125 27.789062 13.273438 C 28.546875 12.722656 29.273438 12.050781 29.578125 11.164062 C 30.097656 9.652344 29.246094 8.011719 28.191406 6.8125 C 26.089844 4.441406 23.136719 2.953125 20.082031 2.105469 C 15.011719 0.707031 9.085938 -0.0429688 4.605469 3.3125 C 3.410156 4.210938 2.390625 5.339844 1.65625 6.640625 Z M 1.65625 6.640625 " fill-opacity="1" fill-rule="nonzero"/></g></g></g></g><g mask="url(#54ae1888da)"><g transform="matrix(1, 0, 0, 1, 552, 364)"><g clip-path="url(#b04cceea73)"><g clip-path="url(#0259b752d0)"><path fill="#3b4144" d="M 1.671875 44.53125 C -0.511719 58.8125 1.15625 66.195312 10.144531 81.347656 C 19.132812 96.503906 31.59375 109.796875 37.570312 126.371094 C 43.425781 142.601562 43.253906 162.121094 55.585938 174.183594 C 59.574219 178.085938 66 180.832031 70.613281 177.699219 C 73.40625 175.804688 74.613281 172.355469 75.652344 169.144531 C 85.820312 137.679688 95.988281 106.210938 106.152344 74.746094 C 108.597656 67.1875 111.035156 58.933594 108.292969 51.476562 C 105.839844 44.808594 99.734375 40.242188 93.6875 36.507812 C 81.46875 28.960938 68.171875 23.160156 54.324219 19.335938 C 46.867188 17.277344 39.128906 15.742188 32.429688 11.878906 C 25.730469 8.015625 19.484375 0.648438 13.183594 0.648438 C 13.183594 0.648438 1.671875 44.53125 1.671875 44.53125 Z M 1.671875 44.53125 " fill-opacity="1" fill-rule="nonzero"/></g></g></g></g><path stroke-linecap="round" transform="matrix(0.651677, 0, 0, 0.651677, 813.447277, 285.116461)" fill-opacity="1" fill="#6f7d88" fill-rule="nonzero" stroke-linejoin="round" d="M -434.962497 136.044338 C -400.96368 153.01977 -375.290737 126.855306 -355.018522 149.045649 C -323.69909 183.332185 -293.974101 204.809224 -250.912129 222.204246 C -139.235125 267.304229 -21.408124 305.732723 98.918438 300.505824 C 219.250994 295.278926 343.377847 238.772076 401.353264 133.203111 C 430.592726 79.951084 441.322254 16.754764 431.300036 -43.162757 C 426.115096 -74.146517 409.397413 -102.888465 394.040401 -130.287724 C 379.690407 -155.882743 367.300499 -180.452763 345.571706 -200.173516 C 289.406523 -251.159754 214.407721 -276.56296 139.762575 -290.061785 C 53.920356 -305.592627 -34.139698 -298.951109 -121.08484 -295.294678 C -183.22619 -292.675235 -238.312427 -317.359143 -301.712548 -280.507111 C -320.749968 -269.44191 -373.228749 -274.195271 -379.960179 -266.954338 " stroke="#000000" stroke-width="6" stroke-opacity="1" stroke-miterlimit="4"/><g mask="url(#f9b7173755)"><g transform="matrix(1, 0, 0, 1, 537, 323)"><g clip-path="url(#ef627c68ab)"><g clip-path="url(#29697bf646)"><path fill="#3b4144" d="M 24.066406 3.503906 C 27.128906 0.800781 31.742188 0.621094 36.464844 1.679688 C 41.308594 2.765625 46.265625 5.15625 49.761719 7.457031 C 56.671875 12.007812 61.414062 19.082031 66.613281 25.511719 C 97.769531 64.066406 147.40625 81.570312 194.410156 97.304688 C 226.15625 107.929688 258.378906 118.648438 291.808594 120.390625 C 366.40625 124.28125 402.667969 101.632812 477.261719 97.699219 C 468.933594 133.101562 394.371094 156.496094 325.132812 157.867188 C 272.609375 158.90625 221.808594 144.304688 171.769531 128.3125 C 133.882812 116.203125 95.515625 105.78125 64.796875 80.515625 C 55.113281 72.554688 51.996094 62.222656 41 56.203125 C 34.957031 52.898438 21.789062 54.882812 14.941406 54.5625 C 9.324219 54.300781 6.195312 54.566406 0.351562 53.542969 C 6.195312 49.652344 12.53125 38.554688 15.167969 32.21875 C 18.601562 23.972656 16.816406 9.910156 24.066406 3.503906 Z M 24.066406 3.503906 " fill-opacity="1" fill-rule="nonzero"/></g></g></g></g><path stroke-linecap="round" transform="matrix(0.651677, 0, 0, 0.651677, 467.033359, 246.981629)" fill-opacity="1" fill="#6f7d88" fill-rule="nonzero" stroke-linejoin="round" d="M 177.111901 -204.324363 C 133.600368 -222.342777 85.389421 -228.84643 38.665024 -223.008128 C 24.06927 -221.185906 9.473515 -218.134884 -3.85148 -211.900968 C -17.278375 -205.619099 -29.152786 -196.190302 -38.725443 -184.879341 C -60.418271 -159.242363 -69.649262 -125.375417 -88.13522 -97.334784 C -103.318401 -74.299267 -124.795439 -55.117988 -135.207278 -29.564927 C -142.046602 -12.76932 -143.623064 5.698656 -149.275547 22.931836 C -153.903031 37.024082 -161.185923 50.085335 -166.658581 63.871879 C -175.469981 86.050233 -179.522027 110.470399 -175.625829 134.015419 C -171.735626 157.56044 -159.441625 180.098443 -140.104498 194.088788 C -120.527605 208.252964 -86.64867 203.457644 -62.833914 207.563637 C -30.975008 213.054278 -7.789636 227.835851 24.380965 224.646964 C 55.136948 221.601936 101.357836 214.139219 119.993648 186.524171 C 129.560311 172.348007 144.275949 140.507084 142.166008 123.561622 " stroke="#000000" stroke-width="6" stroke-opacity="1" stroke-miterlimit="4"/><path stroke-linecap="round" transform="matrix(0.651677, 0, 0, 0.651677, 440.566808, 231.486044)" fill="none" stroke-linejoin="round" d="M -20.338767 1.244222 C -14.4645 -3.485163 -6.702076 -5.804899 0.808594 -5.073612 C 8.319263 -4.342326 15.488266 -0.572006 20.337534 5.206355 " stroke="#000000" stroke-width="6" stroke-opacity="1" stroke-miterlimit="4"/><path stroke-linecap="round" transform="matrix(0.651677, 0, 0, 0.651677, 442.177112, 246.746345)" fill-opacity="1" fill="#000000" fill-rule="nonzero" stroke-linejoin="round" d="M -12.212125 9.967885 C -13.093265 10.471394 -14.142241 9.638207 -13.782592 8.685137 C -13.147212 6.994787 -12.397944 5.20853 -11.960371 3.554145 C -11.103207 0.335287 -10.000284 -2.925531 -7.84239 -5.46705 C -5.714467 -7.984593 -2.603503 -9.656961 0.675297 -10.034593 C 3.954097 -10.412224 7.364768 -9.501113 10.014182 -7.535032 C 12.172076 -5.940588 13.874415 -3.488981 13.850438 -0.809596 C 13.832456 1.731923 12.232018 4.087624 10.122077 5.508238 C 8.012136 6.922857 5.44664 7.522272 2.911115 7.756044 C 0.375589 7.989816 -2.177918 7.887915 -4.719438 8.049757 C -6.847361 8.181629 -8.999261 8.511307 -10.971336 9.350488 C -11.372944 9.524318 -11.792535 9.728119 -12.212125 9.967885 Z M -12.212125 9.967885 " stroke="#000000" stroke-width="6" stroke-opacity="1" stroke-miterlimit="4"/><path fill="#ffffff" d="M 436.488281 245.925781 C 436.378906 245.246094 436.855469 244.148438 437.292969 243.601562 C 437.601562 243.210938 438.449219 242.871094 438.933594 242.878906 C 439.285156 242.886719 439.609375 243.070312 439.863281 243.308594 C 440.292969 243.71875 440.566406 244.304688 440.566406 244.914062 C 440.570312 246.011719 439.78125 246.789062 438.757812 246.953125 C 437.902344 247.089844 436.621094 246.753906 436.488281 245.925781 Z M 436.488281 245.925781 " fill-opacity="1" fill-rule="nonzero"/><path stroke-linecap="round" transform="matrix(0.651677, 0, 0, 0.651677, 443.40092, 365.786253)" fill="none" stroke-linejoin="round" d="M 15.041507 1.089253 C 13.548963 1.311036 7.47689 -0.924782 5.96037 -1.410308 C 2.453792 -2.531214 -2.767112 -3.094664 -6.37559 -2.303436 C -9.600443 -1.590132 -13.46667 1.263083 -15.043131 2.671708 " stroke="#000000" stroke-width="6" stroke-opacity="1" stroke-miterlimit="4"/><path fill="#000000" d="M 459.859375 239.199219 C 459.875 239.363281 459.867188 239.523438 459.832031 239.683594 C 459.632812 240.613281 458.710938 241.132812 457.804688 241.070312 C 456.839844 241.007812 456.222656 240.257812 456.222656 239.3125 C 456.21875 238.230469 457.046875 237.484375 458.121094 237.480469 C 459.035156 237.476562 459.78125 238.320312 459.859375 239.199219 Z M 459.859375 239.199219 " fill-opacity="1" fill-rule="nonzero"/><path fill="#000000" d="M 462.851562 243.890625 C 462.867188 244.054688 462.859375 244.214844 462.824219 244.375 C 462.625 245.304688 461.707031 245.824219 460.800781 245.761719 C 459.835938 245.699219 459.214844 244.949219 459.214844 244.003906 C 459.210938 242.921875 460.039062 242.175781 461.113281 242.171875 C 462.027344 242.167969 462.773438 243.011719 462.851562 243.890625 Z M 462.851562 243.890625 " fill-opacity="1" fill-rule="nonzero"/><path fill="#000000" d="M 421.3125 240.074219 C 421.328125 240.234375 421.320312 240.398438 421.285156 240.558594 C 421.085938 241.484375 420.167969 242.007812 419.261719 241.945312 C 418.296875 241.878906 417.679688 241.132812 417.675781 240.183594 C 417.671875 239.105469 418.5 238.355469 419.574219 238.351562 C 420.492188 238.351562 421.234375 239.195312 421.3125 240.074219 Z M 421.3125 240.074219 " fill-opacity="1" fill-rule="nonzero"/><path fill="#000000" d="M 424.269531 235.601562 C 424.285156 235.765625 424.277344 235.929688 424.242188 236.089844 C 424.042969 237.015625 423.125 237.535156 422.21875 237.476562 C 421.253906 237.410156 420.632812 236.660156 420.632812 235.714844 C 420.628906 234.632812 421.457031 233.886719 422.53125 233.882812 C 423.449219 233.882812 424.191406 234.722656 424.269531 235.601562 Z M 424.269531 235.601562 " fill-opacity="1" fill-rule="nonzero"/><path stroke-linecap="round" transform="matrix(0.651677, 0, 0, 0.651677, 324.199413, 395.47213)" fill-opacity="1" fill="#ffffff" fill-rule="nonzero" stroke-linejoin="round" d="M 68.04529 -49.462916 C 58.538568 -27.919942 45.783018 -7.809569 30.25817 9.903143 C 2.385373 41.690119 -34.346776 65.630754 -74.687404 78.296392 C -75.946176 78.692006 -77.420736 79.051655 -78.517666 78.314374 C -79.830385 77.42724 -79.812402 75.377241 -78.91328 74.076511 C -78.014157 72.77578 -76.521614 72.050488 -75.101 71.355167 C -31.193854 49.974034 4.603209 12.414692 23.844429 -32.475495 C 28.244135 -42.731486 31.822643 -53.377096 37.199395 -63.153554 C 42.336381 -72.486445 74.399088 -79.481618 79.548063 -78.678402 C 79.548063 -78.678402 75.609907 -66.594196 68.04529 -49.462916 Z M 68.04529 -49.462916 " stroke="#000000" stroke-width="6" stroke-opacity="1" stroke-miterlimit="4"/><path stroke-linecap="round" transform="matrix(0.651677, 0, 0, 0.651677, 423.043209, 465.587349)" fill-opacity="1" fill="#809a4b" fill-rule="nonzero" stroke-linejoin="round" d="M -20.440419 150.900555 C -22.178723 134.824245 -14.074632 104.817531 -11.688961 88.009935 C -8.530044 65.747663 -5.299197 43.503374 -2.008409 21.265078 C 4.579162 -23.199525 11.430475 -67.616174 18.545531 -111.966888 C 20.002109 -121.077996 30.192164 -156.47345 18.485589 -150.149622 C 10.711177 -145.953718 4.153577 -113.123759 1.144514 -102.322301 C -9.555043 -63.965737 -16.951824 -23.786951 -20.848021 16.667565 C -25.19378 61.797519 -25.157815 107.305103 -20.440419 150.900555 Z M -20.440419 150.900555 " stroke="#000000" stroke-width="6" stroke-opacity="1" stroke-miterlimit="4"/><path stroke-linecap="round" transform="matrix(0.651677, 0, 0, 0.651677, 448.384976, 463.709205)" fill-opacity="1" fill="#809a4b" fill-rule="nonzero" stroke-linejoin="round" d="M 20.706468 151.852455 C 14.508517 136.723221 16.240826 105.481712 14.688342 88.548239 C 12.626354 66.124125 10.654279 43.694017 8.754133 21.263908 C 4.965831 -23.602303 1.495218 -68.480502 -1.645716 -113.370689 C -2.293085 -122.595686 0.476213 -159.615555 -11.596005 -150.384564 C -19.616177 -144.264537 -18.794979 -110.697299 -19.532259 -99.428297 C -22.13372 -59.399365 -20.401411 -18.483299 -14.497173 21.779405 C -7.909603 66.693569 3.904866 110.816505 20.706468 151.852455 Z M 20.706468 151.852455 " stroke="#000000" stroke-width="6" stroke-opacity="1" stroke-miterlimit="4"/><path stroke-linecap="round" transform="matrix(0.651677, 0, 0, 0.651677, 470.533519, 450.135429)" fill-opacity="1" fill="#809a4b" fill-rule="nonzero" stroke-linejoin="round" d="M 44.982613 130.045057 C 46.229396 114.831905 35.451915 80.04186 30.464782 65.601953 C 23.853235 46.474622 11.247538 24.122437 4.444178 5.061041 C -9.168536 -33.055757 -21.156836 -57.433964 -35.542795 -95.257049 C -38.497911 -103.025467 -56.72612 -131.653526 -38.683729 -129.975165 C -26.587535 -128.848264 -18.615316 -109.816839 -13.136663 -100.975468 C -4.433158 -86.925181 3.299295 -72.227526 10.228533 -57.230163 C 24.104989 -27.199473 34.528816 4.425661 41.176328 36.830035 C 47.458197 67.430169 47.518138 99.001356 44.982613 130.045057 Z M 44.982613 130.045057 " stroke="#000000" stroke-width="6" stroke-opacity="1" stroke-miterlimit="4"/><path stroke-linecap="round" transform="matrix(0.651677, 0, 0, 0.651677, 450.633272, 382.295187)" fill="none" stroke-linejoin="round" d="M -5.233597 -12.135563 C -3.603188 -9.168459 -0.965763 -3.168315 5.232188 12.134749 " stroke="#000000" stroke-width="6" stroke-opacity="1" stroke-miterlimit="4"/><path fill="#000000" d="M 458.007812 395.015625 C 458.054688 395.179688 458.078125 395.355469 458.078125 395.527344 C 458.058594 396.535156 457.230469 397.265625 456.304688 397.386719 C 455.316406 397.511719 454.542969 396.855469 454.355469 395.867188 C 454.140625 394.742188 454.832031 393.792969 455.914062 393.574219 C 456.839844 393.386719 457.757812 394.113281 458.007812 395.015625 Z M 458.007812 395.015625 " fill-opacity="1" fill-rule="nonzero"/><path fill="#000000" d="M 460.957031 402.039062 C 461.003906 402.207031 461.027344 402.378906 461.023438 402.550781 C 461.003906 403.558594 460.179688 404.289062 459.25 404.410156 C 458.261719 404.535156 457.488281 403.878906 457.300781 402.894531 C 457.089844 401.765625 457.777344 400.820312 458.859375 400.597656 C 459.785156 400.410156 460.707031 401.136719 460.957031 402.039062 Z M 460.957031 402.039062 " fill-opacity="1" fill-rule="nonzero"/><path stroke-linecap="round" transform="matrix(0.651491, -0.0155888, 0.0155888, 0.651491, 410.881186, 397.682813)" fill-opacity="1" fill="#6f7d88" fill-rule="nonzero" stroke-linejoin="round" d="M -74.3619 -175.754157 C -122.424625 -108.353466 -138.919695 -20.381092 -121.374949 60.521219 C -116.77982 81.724625 -109.669272 102.796353 -96.806545 120.270293 C -82.753222 139.355631 -62.499942 153.169058 -40.896023 162.907635 C -15.709094 174.254896 12.016426 177.736365 39.477619 174.723984 C 66.938813 171.711602 91.06481 159.991366 108.14501 138.275316 C 125.219217 116.559121 134.221905 87.370812 123.680637 61.834017 C 113.139368 36.297222 85.066724 18.255481 57.716573 22.13992 C 44.955861 23.95712 32.722114 31.315117 27.185282 42.952516 C 22.69639 52.390524 29.264929 52.763546 30.352746 58.419693 C 31.328343 63.503548 26.957185 71.529349 38.611287 73.361136 C 44.202426 74.238407 47.806942 68.934373 56.69978 67.390371 C 64.364426 66.056816 69.230375 71.431622 72.031639 74.388657 C 77.645865 80.315 71.210873 94.4072 64.330448 98.799424 C 57.450024 103.191648 44.747085 105.100168 36.584385 104.946823 C 18.748749 104.609992 3.110227 101.657573 -9.83487 89.380077 C -24.280764 75.675629 -27.811068 53.070685 -27.190921 33.167259 C -26.680488 16.846735 -23.322829 3.316462 -16.967197 -11.718989 C -10.611422 -26.760431 7.500218 -47.480472 23.254713 -56.391096 " stroke="#000000" stroke-width="6" stroke-opacity="1" stroke-miterlimit="4"/><path stroke-linecap="round" transform="matrix(0.651491, -0.0155888, 0.0155888, 0.651491, 340.207079, 371.378293)" fill="none" stroke-linejoin="round" d="M -14.486687 -11.000348 C -9.248453 -1.137722 3.417041 9.544179 14.486496 11.002225 " stroke="#000000" stroke-width="6" stroke-opacity="1" stroke-miterlimit="4"/><path stroke-linecap="round" transform="matrix(0.651491, -0.0155888, 0.0155888, 0.651491, 342.270193, 420.059687)" fill="none" stroke-linejoin="round" d="M -20.661184 -10.089441 C -13.114029 0.00231209 -7.370169 4.019075 2.441181 7.689471 C 8.098517 9.809471 14.613782 10.654892 20.662705 9.690395 " stroke="#000000" stroke-width="6" stroke-opacity="1" stroke-miterlimit="4"/><path stroke-linecap="round" transform="matrix(0.651491, -0.0155888, 0.0155888, 0.651491, 382.297429, 448.073973)" fill="none" stroke-linejoin="round" d="M 22.268346 -5.786431 C 8.433388 1.083562 -6.837132 5.053181 -22.270065 5.787143 " stroke="#000000" stroke-width="6" stroke-opacity="1" stroke-miterlimit="4"/><path stroke-linecap="round" transform="matrix(0.651491, -0.0155888, 0.0155888, 0.651491, 393.547429, 465.216021)" fill="none" stroke-linejoin="round" d="M 16.089634 -14.432599 C 9.035993 -1.548379 -2.520249 8.817766 -16.091247 14.428948 " stroke="#000000" stroke-width="6" stroke-opacity="1" stroke-miterlimit="4"/><path stroke-linecap="round" transform="matrix(0.651491, -0.0155888, 0.0155888, 0.651491, 412.523361, 474.103844)" fill="none" stroke-linejoin="round" d="M 14.708193 -14.041643 C 8.394406 -1.757294 -2.141229 8.303499 -14.707936 14.040641 " stroke="#000000" stroke-width="6" stroke-opacity="1" stroke-miterlimit="4"/><path stroke-linecap="round" transform="matrix(0.651491, -0.0155888, 0.0155888, 0.651491, 469.743031, 453.988413)" fill="none" stroke-linejoin="round" d="M -14.469225 -2.259101 C -2.596286 3.457247 2.229374 3.248938 14.46964 -0.121652 " stroke="#000000" stroke-width="6" stroke-opacity="1" stroke-miterlimit="4"/><path stroke-linecap="round" transform="matrix(0.651491, -0.0155888, 0.0155888, 0.651491, 465.826759, 443.994574)" fill="none" stroke-linejoin="round" d="M -7.869712 3.225675 C -2.137587 2.721275 3.433238 0.438239 7.873792 -3.220911 " stroke="#000000" stroke-width="6" stroke-opacity="1" stroke-miterlimit="4"/><path stroke-linecap="round" transform="matrix(0.651491, -0.0155888, 0.0155888, 0.651491, 457.627951, 438.423022)" fill="none" stroke-linejoin="round" d="M -2.222198 5.479251 C 0.0738653 2.236465 1.609379 -1.54616 2.225212 -5.4827 " stroke="#000000" stroke-width="6" stroke-opacity="1" stroke-miterlimit="4"/><path stroke-linecap="round" transform="matrix(0.651491, -0.0155888, 0.0155888, 0.651491, 450.46604, 436.005214)" fill="none" stroke-linejoin="round" d="M -1.242852 6.509743 C 1.162999 2.687985 1.872536 -2.157684 0.669567 -6.509488 " stroke="#000000" stroke-width="6" stroke-opacity="1" stroke-miterlimit="4"/><path fill="#000000" d="M 358.445312 378.46875 C 358.464844 378.660156 358.460938 378.851562 358.425781 379.042969 C 358 381.328125 354.246094 381.328125 354.242188 378.886719 C 354.242188 378.734375 354.242188 378.582031 354.242188 378.429688 C 354.242188 377.269531 355.289062 376.519531 356.378906 376.488281 C 357.441406 376.460938 358.328125 377.433594 358.445312 378.46875 Z M 358.445312 378.46875 " fill-opacity="1" fill-rule="nonzero"/><path fill="#000000" d="M 363.890625 424.546875 C 363.910156 424.738281 363.90625 424.929688 363.871094 425.121094 C 363.445312 427.40625 359.691406 427.410156 359.6875 424.964844 C 359.6875 424.8125 359.6875 424.660156 359.6875 424.507812 C 359.683594 423.351562 360.734375 422.597656 361.824219 422.570312 C 362.886719 422.539062 363.773438 423.515625 363.890625 424.546875 Z M 363.890625 424.546875 " fill-opacity="1" fill-rule="nonzero"/><path fill="#000000" d="M 363.101562 452.210938 C 363.125 452.402344 363.117188 452.59375 363.082031 452.785156 C 362.660156 455.070312 358.90625 455.070312 358.902344 452.625 C 358.902344 452.472656 358.902344 452.320312 358.898438 452.171875 C 358.898438 451.011719 359.945312 450.261719 361.039062 450.230469 C 362.097656 450.203125 362.988281 451.175781 363.101562 452.210938 Z M 363.101562 452.210938 " fill-opacity="1" fill-rule="nonzero"/><path fill="#000000" d="M 369.695312 423.152344 C 369.714844 423.3125 369.710938 423.476562 369.679688 423.636719 C 369.503906 424.570312 368.597656 425.113281 367.6875 425.074219 C 366.722656 425.03125 366.085938 424.296875 366.0625 423.351562 C 366.035156 422.269531 366.84375 421.503906 367.914062 421.472656 C 368.832031 421.449219 369.597656 422.273438 369.695312 423.152344 Z M 369.695312 423.152344 " fill-opacity="1" fill-rule="nonzero"/><path fill="#000000" d="M 379.957031 476.601562 C 379.976562 476.765625 379.96875 476.929688 379.941406 477.089844 C 379.765625 478.019531 378.855469 478.5625 377.949219 478.523438 C 376.984375 478.480469 376.347656 477.746094 376.320312 476.800781 C 376.292969 475.722656 377.105469 474.953125 378.175781 474.925781 C 379.09375 474.902344 379.859375 475.726562 379.957031 476.601562 Z M 379.957031 476.601562 " fill-opacity="1" fill-rule="nonzero"/><path fill="#000000" d="M 356.511719 452.707031 C 356.53125 452.867188 356.527344 453.03125 356.496094 453.191406 C 356.320312 454.125 355.414062 454.667969 354.503906 454.628906 C 353.539062 454.585938 352.902344 453.851562 352.878906 452.90625 C 352.851562 451.824219 353.660156 451.058594 354.734375 451.03125 C 355.648438 451.003906 356.414062 451.828125 356.511719 452.707031 Z M 356.511719 452.707031 " fill-opacity="1" fill-rule="nonzero"/><path fill="#000000" d="M 399.914062 486.652344 C 399.933594 486.8125 399.925781 486.976562 399.898438 487.136719 C 399.722656 488.066406 398.8125 488.613281 397.90625 488.574219 C 396.941406 488.53125 396.304688 487.796875 396.28125 486.851562 C 396.25 485.769531 397.0625 485.003906 398.132812 484.972656 C 399.050781 484.949219 399.816406 485.773438 399.914062 486.652344 Z M 399.914062 486.652344 " fill-opacity="1" fill-rule="nonzero"/><path fill="#000000" d="M 485.882812 452.050781 C 485.898438 452.214844 485.894531 452.378906 485.863281 452.539062 C 485.6875 453.46875 484.78125 454.011719 483.875 453.972656 C 482.90625 453.929688 482.269531 453.195312 482.246094 452.25 C 482.21875 451.171875 483.027344 450.402344 484.101562 450.375 C 485.015625 450.351562 485.78125 451.175781 485.882812 452.050781 Z M 485.882812 452.050781 " fill-opacity="1" fill-rule="nonzero"/><path fill="#000000" d="M 476.523438 437.890625 C 476.542969 438.054688 476.539062 438.21875 476.507812 438.378906 C 476.332031 439.308594 475.425781 439.851562 474.515625 439.8125 C 473.550781 439.769531 472.914062 439.035156 472.890625 438.089844 C 472.863281 437.011719 473.671875 436.242188 474.746094 436.214844 C 475.660156 436.191406 476.425781 437.015625 476.523438 437.890625 Z M 476.523438 437.890625 " fill-opacity="1" fill-rule="nonzero"/><path fill="#000000" d="M 462.503906 429.597656 C 462.523438 429.757812 462.519531 429.921875 462.488281 430.082031 C 462.3125 431.011719 461.40625 431.558594 460.496094 431.519531 C 459.53125 431.476562 458.894531 430.742188 458.871094 429.796875 C 458.84375 428.714844 459.652344 427.949219 460.722656 427.917969 C 461.640625 427.894531 462.40625 428.71875 462.503906 429.597656 Z M 462.503906 429.597656 " fill-opacity="1" fill-rule="nonzero"/><path fill="#000000" d="M 451.238281 426.269531 C 451.257812 426.429688 451.253906 426.59375 451.222656 426.753906 C 451.046875 427.683594 450.136719 428.230469 449.230469 428.191406 C 448.265625 428.148438 447.628906 427.414062 447.605469 426.46875 C 447.574219 425.386719 448.386719 424.621094 449.457031 424.589844 C 450.375 424.566406 451.140625 425.390625 451.238281 426.269531 Z M 451.238281 426.269531 " fill-opacity="1" fill-rule="nonzero"/><path fill="#000000" d="M 448.628906 421.550781 C 448.644531 421.710938 448.640625 421.875 448.609375 422.035156 C 448.433594 422.96875 447.527344 423.511719 446.621094 423.472656 C 445.652344 423.429688 445.015625 422.695312 444.992188 421.75 C 444.964844 420.667969 445.773438 419.902344 446.847656 419.875 C 447.761719 419.847656 448.527344 420.675781 448.628906 421.550781 Z M 448.628906 421.550781 " fill-opacity="1" fill-rule="nonzero"/><path fill="#000000" d="M 364.667969 378.96875 C 364.550781 379.175781 364.402344 379.363281 364.226562 379.53125 C 363.046875 380.628906 360.921875 379.960938 360.695312 378.3125 C 360.445312 376.511719 362.59375 375.375 364.0625 376.246094 C 365.070312 376.839844 365.191406 378.050781 364.667969 378.96875 Z M 364.667969 378.96875 " fill-opacity="1" fill-rule="nonzero"/><path stroke-linecap="round" transform="matrix(0.651525, -0.0140537, 0.0140537, 0.651525, 464.070103, 468.119588)" fill-opacity="1" fill="#809a4b" fill-rule="nonzero" stroke-linejoin="round" d="M -33.201293 -37.046856 C -34.502744 -36.193583 -35.623592 -35.096594 -36.40203 -33.752396 C -38.512944 -30.116666 -36.462196 -25.126106 -34.1133 -22.005721 C -31.525423 -18.568412 -27.671755 -16.554721 -23.562783 -15.536779 C -19.31063 -14.485771 -14.873276 -14.515962 -10.494945 -14.589395 C -6.110491 -14.668691 -1.683442 -14.777046 2.601905 -13.87521 C 13.494476 -11.589776 22.198563 -2.906339 27.133567 7.068777 C 32.068572 17.043894 33.762892 28.274122 35.047331 39.327634 C 40.383668 20.412884 35.988819 -0.984084 23.619846 -16.263732 C 16.822148 -24.66023 7.70377 -31.092284 -2.369106 -34.966843 C -8.083548 -37.158568 -14.146334 -38.488454 -20.230626 -39.099339 C -23.221962 -39.39769 -26.283227 -39.511687 -29.201042 -38.771223 C -30.605628 -38.417805 -31.985032 -37.84201 -33.201293 -37.046856 Z M -33.201293 -37.046856 " stroke="#000000" stroke-width="6" stroke-opacity="1" stroke-miterlimit="4"/><path stroke-linecap="round" transform="matrix(0.651525, -0.0140537, 0.0140537, 0.651525, 455.281423, 482.923124)" fill-opacity="1" fill="#809a4b" fill-rule="nonzero" stroke-linejoin="round" d="M -25.967475 -56.122756 C -34.409815 -53.870671 -33.771178 -39.839312 -28.871803 -34.883235 C -25.597649 -31.575016 -21.010714 -29.923228 -16.470134 -28.901972 C -11.929554 -27.880715 -7.251879 -27.378114 -2.847488 -25.880152 C 4.104481 -23.523835 9.985504 -18.492623 13.790117 -12.259127 C 18.063985 -5.266066 18.141207 2.271999 19.597973 10.061656 C 21.832815 22.082965 22.68156 44.440671 20.74247 56.509843 C 32.027463 38.101127 36.558979 3.130935 28.035659 -16.712307 C 23.354666 -27.623244 15.633899 -37.142834 6.134089 -44.23663 C 0.752977 -48.261798 -5.263227 -51.47328 -11.511458 -53.934328 C -15.726455 -55.59608 -21.230798 -57.243675 -25.816751 -56.161474 C -25.870944 -56.150652 -25.919145 -56.139701 -25.967475 -56.122756 Z M -25.967475 -56.122756 " stroke="#000000" stroke-width="6" stroke-opacity="1" stroke-miterlimit="4"/><path stroke-linecap="round" transform="matrix(0.651525, -0.0140537, 0.0140537, 0.651525, 444.27056, 455.053797)" fill="none" stroke-linejoin="round" d="M -7.515298 -2.163254 C -1.840923 -1.171501 1.756974 -0.920022 7.512083 2.165918 " stroke="#000000" stroke-width="6" stroke-opacity="1" stroke-miterlimit="4"/><path fill="#000000" d="M 455.703125 458.910156 C 455.71875 459.070312 455.714844 459.234375 455.683594 459.394531 C 455.507812 460.324219 454.597656 460.867188 453.691406 460.824219 C 452.722656 460.78125 452.089844 460.046875 452.066406 459.101562 C 452.042969 458.019531 452.855469 457.253906 453.925781 457.226562 C 454.84375 457.207031 455.605469 458.03125 455.703125 458.910156 Z M 455.703125 458.910156 " fill-opacity="1" fill-rule="nonzero"/><path stroke-linecap="round" transform="matrix(0.651677, 0, 0, 0.651677, 597.134856, 213.206493)" fill-opacity="1" fill="#6f7d88" fill-rule="nonzero" stroke-linejoin="round" d="M -79.971088 -79.955138 C -75.58337 -93.843583 -59.842733 -101.815802 -45.300926 -101.048551 C -30.765113 -100.2813 -17.476083 -92.530864 -6.135151 -83.401774 C 5.211774 -74.278678 15.28794 -63.573127 27.222292 -55.235264 C 38.51527 -47.346963 51.570528 -41.478691 60.489823 -30.97694 C 70.06248 -19.707939 73.575052 -4.590693 75.846835 10.01705 C 79.665108 34.611046 80.839962 59.612645 79.33543 84.458395 C 79.077682 88.774183 78.640109 93.34772 76.068618 96.830321 C 73.497128 100.312922 68.635873 101.835436 64.194208 100.756489 " stroke="#000000" stroke-width="6" stroke-opacity="1" stroke-miterlimit="4"/><path stroke-linecap="round" transform="matrix(0.651677, 0, 0, 0.651677, 588.366529, 290.834273)" fill-opacity="1" fill="#6f7d88" fill-rule="nonzero" stroke-linejoin="round" d="M 74.088702 -51.71497 C 74.088702 -51.71497 78.314578 -21.504456 75.86297 -14.161622 C 74.87993 -11.218495 73.009755 -5.667912 68.610049 -4.62493 C 35.294565 3.245389 6.133026 27.665555 -7.018138 59.338642 C -10.548693 67.832352 -15.793574 78.753693 -25.767839 75.74463 C -29.016668 74.761589 -31.690059 72.429865 -33.386403 69.486737 C -46.765345 46.295372 -60.641802 23.026083 -69.039606 -2.431071 C -76.885948 -26.203869 -79.709192 -52.32038 -72.372353 -76.255019 " stroke="#000000" stroke-width="6" stroke-opacity="1" stroke-miterlimit="4"/><path fill="#000000" d="M 637.804688 251.007812 C 637.820312 251.167969 637.808594 251.332031 637.777344 251.492188 C 637.578125 252.417969 636.65625 252.941406 635.75 252.878906 C 634.785156 252.816406 634.167969 252.066406 634.167969 251.117188 C 634.164062 250.039062 634.992188 249.292969 636.066406 249.289062 C 636.980469 249.285156 637.726562 250.128906 637.804688 251.007812 Z M 637.804688 251.007812 " fill-opacity="1" fill-rule="nonzero"/><path fill="#000000" d="M 545.011719 234.800781 C 545.027344 234.960938 545.019531 235.125 544.984375 235.285156 C 544.785156 236.210938 543.867188 236.734375 542.960938 236.671875 C 541.996094 236.609375 541.375 235.859375 541.375 234.910156 C 541.371094 233.832031 542.199219 233.082031 543.273438 233.082031 C 544.1875 233.078125 544.933594 233.921875 545.011719 234.800781 Z M 545.011719 234.800781 " fill-opacity="1" fill-rule="nonzero"/><path fill="#000000" d="M 545.011719 167.027344 C 545.027344 167.191406 545.019531 167.355469 544.984375 167.515625 C 544.785156 168.441406 543.867188 168.960938 542.960938 168.902344 C 541.996094 168.835938 541.375 168.085938 541.375 167.140625 C 541.371094 166.058594 542.199219 165.3125 543.273438 165.308594 C 544.1875 165.308594 544.933594 166.148438 545.011719 167.027344 Z M 545.011719 167.027344 " fill-opacity="1" fill-rule="nonzero"/><path fill="#000000" d="M 546.835938 229.8125 C 546.847656 229.972656 546.839844 230.136719 546.808594 230.296875 C 546.609375 231.222656 545.6875 231.746094 544.78125 231.683594 C 543.816406 231.621094 543.199219 230.871094 543.195312 229.925781 C 543.195312 228.84375 544.023438 228.097656 545.09375 228.09375 C 546.011719 228.089844 546.757812 228.933594 546.835938 229.8125 Z M 546.835938 229.8125 " fill-opacity="1" fill-rule="nonzero"/><path fill="#000000" d="M 636.789062 245.101562 C 636.804688 245.265625 636.796875 245.429688 636.761719 245.589844 C 636.5625 246.515625 635.644531 247.039062 634.738281 246.976562 C 633.773438 246.910156 633.15625 246.160156 633.152344 245.214844 C 633.148438 244.136719 633.976562 243.386719 635.050781 243.382812 C 635.96875 243.382812 636.710938 244.226562 636.789062 245.101562 Z M 636.789062 245.101562 " fill-opacity="1" fill-rule="nonzero"/><path fill="#000000" d="M 634.96875 239.199219 C 634.984375 239.363281 634.972656 239.523438 634.941406 239.683594 C 634.742188 240.613281 633.820312 241.132812 632.914062 241.070312 C 631.949219 241.007812 631.332031 240.257812 631.332031 239.3125 C 631.328125 238.230469 632.15625 237.484375 633.230469 237.480469 C 634.144531 237.476562 634.890625 238.320312 634.96875 239.199219 Z M 634.96875 239.199219 " fill-opacity="1" fill-rule="nonzero"/><g mask="url(#de61d198a3)"><g transform="matrix(1, 0, 0, 1, 549, 156)"><g clip-path="url(#7e1b670e3e)"><g clip-path="url(#8cd7cdded8)"><path fill="#3b4144" d="M 24.792969 1.753906 C 33.207031 3.335938 40.171875 9.148438 46.109375 15.316406 C 52.046875 21.488281 57.492188 28.316406 64.691406 32.949219 C 70.894531 36.9375 78.84375 39.839844 81.347656 46.777344 C 82.523438 50.019531 81.585938 54.523438 78.261719 55.441406 C 76.402344 55.953125 74.445312 55.164062 72.773438 54.207031 C 65.167969 49.855469 60.363281 42.039062 55.011719 35.101562 C 49.664062 28.160156 42.601562 21.417969 33.851562 20.953125 C 28.984375 20.699219 24.269531 22.449219 19.519531 23.535156 C 12.570312 25.125 -2.796875 22.6875 2.019531 11.757812 C 5.285156 4.339844 17.542969 0.390625 24.792969 1.753906 Z M 24.792969 1.753906 " fill-opacity="1" fill-rule="nonzero"/></g></g></g></g><path stroke-linecap="round" transform="matrix(0.651677, 0, 0, 0.651677, 715.69701, 510.248778)" fill-opacity="1" fill="#6f7d88" fill-rule="nonzero" stroke-linejoin="round" d="M 60.933921 -355.133515 C 116.667526 -274.38033 125.125271 -163.338706 82.261106 -75.074851 C 70.158918 -50.151176 54.280415 -26.887881 45.756734 -0.519616 C 38.449865 22.102305 36.849427 46.108875 35.314925 69.833719 C 30.153962 149.579887 29.776331 226.772548 54.034655 302.910238 C 57.954829 315.198245 59.998834 329.770023 53.43524 340.871188 C 48.280271 349.580688 35.824428 355.011388 25.700309 354.747645 C 15.582184 354.483902 6.93862 352.170161 -2.466201 348.411829 C -15.887102 351.384927 -18.800259 355.149253 -36.399082 355.137265 C -45.414284 355.125276 -50.6232 352.152178 -60.963108 348.747501 C -68.401848 349.928349 -92.462365 356.246182 -98.960023 344.413731 C -104.708413 333.935957 -101.969087 320.760816 -93.739119 312.09927 C -85.503157 303.437723 -74.366027 297.947082 -66.225972 289.201618 C -54.243666 276.314196 -50.155656 257.666396 -51.156679 240.097543 C -52.151708 222.534684 -59.452582 206.014807 -62.671441 188.715691 C -87.960759 52.912234 -110.079171 -60.353219 -109.395838 -187.021592 " stroke="#000000" stroke-width="6" stroke-opacity="1" stroke-miterlimit="4"/><path fill="#000000" d="M 754.191406 273.617188 C 754.207031 273.8125 754.199219 274.011719 754.15625 274.207031 C 753.917969 275.328125 752.804688 275.957031 751.707031 275.882812 C 750.539062 275.804688 749.792969 274.898438 749.789062 273.753906 C 749.785156 272.445312 750.789062 271.542969 752.085938 271.539062 C 753.195312 271.535156 754.09375 272.554688 754.191406 273.617188 Z M 754.191406 273.617188 " fill-opacity="1" fill-rule="nonzero"/><path fill="#000000" d="M 749.78125 267.464844 C 749.796875 267.660156 749.789062 267.859375 749.746094 268.050781 C 749.507812 269.171875 748.394531 269.804688 747.296875 269.730469 C 746.132812 269.648438 745.382812 268.742188 745.378906 267.597656 C 745.378906 266.292969 746.378906 265.386719 747.675781 265.382812 C 748.785156 265.382812 749.6875 266.402344 749.78125 267.464844 Z M 749.78125 267.464844 " fill-opacity="1" fill-rule="nonzero"/><path fill="#000000" d="M 647.140625 382.234375 C 647.15625 382.425781 647.148438 382.621094 647.105469 382.8125 C 646.867188 383.917969 645.769531 384.539062 644.691406 384.464844 C 643.539062 384.386719 642.804688 383.496094 642.800781 382.367188 C 642.796875 381.078125 643.785156 380.1875 645.0625 380.183594 C 646.15625 380.179688 647.046875 381.183594 647.140625 382.234375 Z M 647.140625 382.234375 " fill-opacity="1" fill-rule="nonzero"/><path fill="#000000" d="M 648.734375 374.703125 C 648.75 374.894531 648.742188 375.089844 648.699219 375.28125 C 648.464844 376.386719 647.363281 377.007812 646.285156 376.9375 C 645.132812 376.859375 644.398438 375.964844 644.394531 374.835938 C 644.390625 373.546875 645.378906 372.65625 646.65625 372.652344 C 647.75 372.648438 648.640625 373.65625 648.734375 374.703125 Z M 648.734375 374.703125 " fill-opacity="1" fill-rule="nonzero"/><path stroke-linecap="round" transform="matrix(0.651677, 0, 0, 0.651677, 677.588876, 722.81348)" fill="none" stroke-linejoin="round" d="M 2.818735 -7.620068 C -0.98755 -3.562028 -3.061526 2.066478 -2.797783 7.617061 " stroke="#000000" stroke-width="6" stroke-opacity="1" stroke-miterlimit="4"/><path stroke-linecap="round" transform="matrix(0.651677, 0, 0, 0.651677, 713.356266, 722.994584)" fill="none" stroke-linejoin="round" d="M -1.673592 -10.001919 C 0.71208 -3.630137 1.850968 3.203193 1.647167 10.000559 " stroke="#000000" stroke-width="6" stroke-opacity="1" stroke-miterlimit="4"/><g mask="url(#bcac82f187)"><g transform="matrix(1, 0, 0, 1, 721, 723)"><g clip-path="url(#a4b2a5e5b2)"><g clip-path="url(#8892aa88b5)"><path fill="#ffffff" d="M 2.703125 13.105469 C 7.9375 19.472656 26.609375 10.144531 18.941406 2.898438 C 12.695312 -3.007812 -5.0625 3.65625 2.703125 13.105469 Z M 2.703125 13.105469 " fill-opacity="1" fill-rule="nonzero"/></g></g></g></g><g mask="url(#b68522333e)"><g transform="matrix(1, 0, 0, 1, 679, 720)"><g clip-path="url(#53b32dd4c2)"><g clip-path="url(#1aef2d9109)"><path fill="#ffffff" d="M 29.515625 4.84375 C 21.601562 -0.0234375 11.046875 0.726562 3.785156 6.679688 C 2.695312 7.574219 1.652344 8.601562 1.011719 9.914062 C 0.371094 11.226562 0.1875 12.867188 0.808594 14.191406 C 1.414062 15.480469 2.660156 16.253906 3.886719 16.824219 C 9.101562 19.246094 15.007812 19.191406 20.644531 18.460938 C 23.046875 18.152344 25.492188 17.707031 27.613281 16.4375 C 29.730469 15.164062 31.488281 12.917969 31.683594 10.304688 C 31.839844 8.222656 30.941406 6.085938 29.386719 4.851562 " fill-opacity="1" fill-rule="nonzero"/></g></g></g></g><g mask="url(#3136d420a0)"><g transform="matrix(1, 0, 0, 1, 651, 720)"><g clip-path="url(#1ef4047337)"><g clip-path="url(#3aefd19117)"><path fill="#ffffff" d="M 21.542969 7.363281 C 22.019531 8.539062 22.347656 9.898438 22.214844 11.238281 C 22.082031 12.589844 21.492188 13.792969 20.746094 14.6875 C 19.761719 15.875 18.507812 16.578125 17.226562 16.949219 C 15.945312 17.316406 14.628906 17.367188 13.320312 17.378906 C 11.472656 17.394531 9.613281 17.332031 7.796875 16.863281 C 5.976562 16.394531 4.191406 15.507812 2.699219 13.996094 C 2.152344 13.445312 1.628906 12.773438 1.40625 11.886719 C 1.035156 10.375 1.070312 8.179688 1.832031 6.984375 C 3.347656 4.609375 6.050781 3.675781 8.253906 2.832031 C 11.910156 1.429688 16.183594 0.679688 19.414062 4.039062 C 20.273438 4.933594 21.011719 6.0625 21.542969 7.363281 Z M 21.542969 7.363281 " fill-opacity="1" fill-rule="nonzero"/></g></g></g></g><path fill="#6f7d88" d="M 1073.953125 212.515625 C 1101.910156 241.214844 1108.042969 284.480469 1108.367188 324.546875 C 1108.832031 382.3125 1100.28125 439.75 1097.210938 497.433594 C 1094.140625 555.121094 1096.847656 614.484375 1118.703125 667.960938 C 1122.902344 678.242188 1127.394531 691.21875 1119.835938 699.355469 C 1115.027344 704.535156 1107.226562 705.265625 1100.171875 705.667969 C 1089.335938 706.28125 1078.5 706.898438 1067.664062 707.515625 C 1055.234375 708.21875 1039.273438 706.632812 1035.625 694.726562 C 1033.777344 688.695312 1036.128906 682.277344 1038.171875 676.308594 C 1051.191406 638.265625 1052.414062 596.273438 1041.632812 557.539062 C 1030.847656 518.800781 1013.0625 481.945312 982.257812 456.101562 C 1006.367188 438.722656 1024.105469 411.886719 1029.390625 386.589844 " fill-opacity="1" fill-rule="nonzero"/><g mask="url(#d4288be220)"><g transform="matrix(1, 0, 0, 1, 983, 291)"><g clip-path="url(#649a5f1cd7)"><g clip-path="url(#8db02f6982)"><path fill="#3b4144" d="M 1.386719 163.632812 C 10.730469 167.53125 35.09375 164.242188 43.511719 158.617188 C 51.925781 152.988281 58.027344 144.515625 63.054688 135.726562 C 83.492188 99.996094 87.96875 55.8125 76.332031 16.445312 C 74.628906 10.6875 71.847656 -4.964844 63.066406 2.367188 C 57.722656 6.832031 60.449219 23.464844 59.953125 29.96875 C 58.277344 51.960938 53.976562 73.753906 47.21875 94.746094 C 39.5 118.734375 25.542969 147.722656 1.386719 163.632812 Z M 1.386719 163.632812 " fill-opacity="1" fill-rule="nonzero"/></g></g></g></g><path stroke-linecap="round" transform="matrix(0.651677, 0, 0, 0.651677, 1053.085273, 460.086549)" fill="none" stroke-linejoin="round" d="M 32.021767 -379.898161 C 74.921897 -335.859143 84.332712 -269.46794 84.830227 -207.985946 C 85.54353 -119.34446 72.422337 -31.206482 67.710935 57.309128 C 62.999533 145.830731 67.153479 236.923825 100.690747 318.983735 C 107.134458 334.760337 114.02773 354.672902 102.42905 367.158716 C 95.050252 375.106959 83.079935 376.227865 72.2545 376.845262 C 55.626729 377.786344 38.998958 378.73342 22.371186 379.680495 C 3.297802 380.759442 -21.194294 378.325817 -26.79283 360.055649 C -29.628063 350.800682 -26.019585 340.952294 -22.884644 331.793233 C -2.906143 273.416208 -1.029974 208.979099 -17.573828 149.54111 C -34.123675 90.097127 -61.415039 33.542324 -108.684904 -6.114971 " stroke="#000000" stroke-width="6" stroke-opacity="1" stroke-miterlimit="4"/><path stroke-linecap="round" transform="matrix(0.651677, 0, 0, 0.651677, 1012.305195, 356.592396)" fill="none" stroke-linejoin="round" d="M 41.316895 -152.698887 C 58.184432 -38.53431 30.887074 101.36315 -46.107779 152.697049 " stroke="#000000" stroke-width="6" stroke-opacity="1" stroke-miterlimit="4"/><path fill="#000000" d="M 1040.246094 250.699219 C 1040.261719 250.890625 1040.253906 251.085938 1040.210938 251.277344 C 1039.976562 252.382812 1038.878906 253.003906 1037.796875 252.929688 C 1036.648438 252.851562 1035.910156 251.960938 1035.90625 250.832031 C 1035.90625 249.542969 1036.890625 248.652344 1038.171875 248.648438 C 1039.261719 248.644531 1040.152344 249.648438 1040.246094 250.699219 Z M 1040.246094 250.699219 " fill-opacity="1" fill-rule="nonzero"/><path fill="#000000" d="M 1038.796875 244.617188 C 1038.816406 244.808594 1038.804688 245.003906 1038.765625 245.195312 C 1038.527344 246.300781 1037.429688 246.921875 1036.347656 246.847656 C 1035.199219 246.769531 1034.460938 245.878906 1034.460938 244.75 C 1034.457031 243.460938 1035.441406 242.570312 1036.722656 242.566406 C 1037.816406 242.5625 1038.703125 243.566406 1038.796875 244.617188 Z M 1038.796875 244.617188 " fill-opacity="1" fill-rule="nonzero"/><path fill="#000000" d="M 1036.625 238.53125 C 1036.640625 238.726562 1036.632812 238.921875 1036.589844 239.109375 C 1036.351562 240.214844 1035.253906 240.839844 1034.175781 240.765625 C 1033.023438 240.6875 1032.289062 239.792969 1032.285156 238.664062 C 1032.28125 237.378906 1033.269531 236.488281 1034.546875 236.484375 C 1035.640625 236.480469 1036.53125 237.484375 1036.625 238.53125 Z M 1036.625 238.53125 " fill-opacity="1" fill-rule="nonzero"/><g mask="url(#bec1d19cff)"><g transform="matrix(1, 0, 0, 1, 1042, 690)"><g clip-path="url(#fd7d3efc57)"><g clip-path="url(#61431191f2)"><path fill="#ffffff" d="M 15.808594 10.480469 C 10.667969 16.917969 -4.203125 9.578125 3.46875 2.328125 C 9.714844 -3.578125 21.449219 3.414062 15.808594 10.480469 Z M 15.808594 10.480469 " fill-opacity="1" fill-rule="nonzero"/></g></g></g></g><g mask="url(#89441c74d5)"><g transform="matrix(1, 0, 0, 1, 1066, 686)"><g clip-path="url(#203d664428)"><g clip-path="url(#b5220a9e18)"><path fill="#ffffff" d="M 2.550781 3.988281 C 8.160156 -0.5 15.644531 0.195312 20.792969 5.679688 C 21.566406 6.507812 22.304688 7.453125 22.757812 8.664062 C 23.210938 9.875 23.34375 11.390625 22.902344 12.609375 C 22.472656 13.796875 21.589844 14.511719 20.722656 15.039062 C 17.023438 17.273438 12.835938 17.21875 8.839844 16.546875 C 7.136719 16.261719 5.402344 15.851562 3.902344 14.679688 C 2.398438 13.507812 1.152344 11.4375 1.011719 9.023438 C 0.902344 7.105469 1.539062 5.136719 2.640625 4 " fill-opacity="1" fill-rule="nonzero"/></g></g></g></g><g mask="url(#07bd94a287)"><g transform="matrix(1, 0, 0, 1, 1097, 684)"><g clip-path="url(#bc0df51072)"><g clip-path="url(#dc0352a94e)"><path fill="#ffffff" d="M 21.960938 3.601562 C 22.863281 4.539062 23.65625 5.703125 23.945312 7.019531 C 24.234375 8.347656 23.976562 9.707031 23.453125 10.828125 C 22.757812 12.324219 21.617188 13.457031 20.335938 14.28125 C 19.058594 15.105469 17.636719 15.644531 16.210938 16.140625 C 14.199219 16.839844 12.148438 17.46875 10.011719 17.703125 C 7.878906 17.9375 5.640625 17.757812 3.523438 16.886719 C 2.75 16.566406 1.957031 16.125 1.433594 15.367188 C 0.539062 14.078125 0.679688 12.292969 1.128906 10.878906 C 2.011719 8.066406 3.859375 5.867188 5.992188 4.25 C 9.535156 1.5625 13.957031 -0.734375 18.566406 1.246094 C 19.796875 1.773438 20.964844 2.570312 21.960938 3.601562 Z M 21.960938 3.601562 " fill-opacity="1" fill-rule="nonzero"/></g></g></g></g><path stroke-linecap="round" transform="matrix(0.651677, 0, 0, 0.651677, 1066.036705, 690.111657)" fill="none" stroke-linejoin="round" d="M 1.478179 -13.718117 C -0.769627 -5.380254 -1.788633 4.276321 -1.399013 13.717107 " stroke="#000000" stroke-width="6" stroke-opacity="1" stroke-miterlimit="4"/><path stroke-linecap="round" transform="matrix(0.651677, 0, 0, 0.651677, 1092.615311, 688.575633)" fill="none" stroke-linejoin="round" d="M -0.4287 -8.262109 C -1.375775 -2.75948 -0.914226 2.982916 0.907996 8.263762 " stroke="#000000" stroke-width="6" stroke-opacity="1" stroke-miterlimit="4"/><path stroke-linecap="round" transform="matrix(0.651677, 0, 0, 0.651677, 376.04032, 405.118896)" fill-opacity="1" fill="#ffffff" fill-rule="nonzero" stroke-linejoin="round" d="M 68.049652 -49.466345 C 58.536937 -27.923371 45.78738 -7.807004 30.256538 9.899714 C 2.383742 41.692685 -34.348408 65.627324 -74.683042 78.292963 C -75.947807 78.694571 -77.422368 79.05422 -78.519297 78.310945 C -79.826022 77.429805 -79.814034 75.373812 -78.914911 74.073081 C -78.015789 72.778345 -76.523245 72.047059 -75.102632 71.357732 C -31.195485 49.976599 4.601577 12.411263 23.842798 -32.47293 C 28.242504 -42.728921 31.821011 -53.37453 37.197764 -63.150989 C 42.33475 -72.489874 74.403451 -79.485047 79.552426 -78.675837 C 79.552426 -78.675837 75.608275 -66.597625 68.049652 -49.466345 Z M 68.049652 -49.466345 " stroke="#000000" stroke-width="6" stroke-opacity="1" stroke-miterlimit="4"/><path stroke-linecap="round" transform="matrix(0.651677, 0, 0, 0.651677, 427.832385, 353.043372)" fill="none" stroke-linejoin="round" d="M -8.428317 2.085346 C -2.793816 1.162247 3.158375 0.119264 8.427232 -2.086583 " stroke="#000000" stroke-width="6" stroke-opacity="1" stroke-miterlimit="4"/><path fill="#000000" d="M 440.527344 349.804688 C 440.542969 349.96875 440.535156 350.132812 440.5 350.292969 C 440.300781 351.21875 439.378906 351.738281 438.472656 351.679688 C 437.511719 351.613281 436.890625 350.863281 436.890625 349.917969 C 436.886719 348.835938 437.714844 348.089844 438.789062 348.085938 C 439.703125 348.085938 440.449219 348.925781 440.527344 349.804688 Z M 440.527344 349.804688 " fill-opacity="1" fill-rule="nonzero"/><path fill="#000000" d="M 445.214844 346.472656 C 445.230469 346.632812 445.222656 346.796875 445.1875 346.957031 C 444.988281 347.882812 444.070312 348.40625 443.164062 348.34375 C 442.199219 348.277344 441.582031 347.53125 441.578125 346.582031 C 441.574219 345.503906 442.402344 344.753906 443.476562 344.753906 C 444.394531 344.75 445.136719 345.59375 445.214844 346.472656 Z M 445.214844 346.472656 " fill-opacity="1" fill-rule="nonzero"/></svg>