<svg xmlns="http://www.w3.org/2000/svg" xmlns:xlink="http://www.w3.org/1999/xlink" width="1920" zoomAndPan="magnify" viewBox="0 0 1440 809.999993" height="1080" preserveAspectRatio="xMidYMid meet" version="1.0"><defs><clipPath id="f95a34aabd"><path d="M 935 436 L 943 436 L 943 456.660156 L 935 456.660156 Z M 935 436 " clip-rule="nonzero"/></clipPath><clipPath id="cd86d708e7"><path d="M 497 436 L 505 436 L 505 456.660156 L 497 456.660156 Z M 497 436 " clip-rule="nonzero"/></clipPath><clipPath id="76ac77a5a7"><path d="M 982 353.160156 L 994 353.160156 L 994 373 L 982 373 Z M 982 353.160156 " clip-rule="nonzero"/></clipPath><clipPath id="7738915bf2"><path d="M 446 353.160156 L 458 353.160156 L 458 373 L 446 373 Z M 446 353.160156 " clip-rule="nonzero"/></clipPath></defs><path fill="#37b44a" d="M 461.378906 378.871094 C 461.167969 378.710938 461.117188 378.417969 461.257812 378.199219 C 461.402344 377.976562 461.6875 377.902344 461.917969 378.023438 C 470.460938 382.527344 479.390625 386.496094 488.457031 389.816406 C 496.488281 392.757812 504.78125 395.246094 513.105469 397.214844 C 514.589844 397.566406 516.121094 397.863281 517.675781 398.101562 C 514.582031 395.726562 511.855469 392.933594 509.554688 389.777344 C 506.886719 386.121094 504.863281 382.074219 503.53125 377.753906 C 503.457031 377.515625 503.570312 377.257812 503.796875 377.152344 C 504.023438 377.042969 504.292969 377.113281 504.429688 377.320312 C 507.421875 381.714844 510.957031 385.675781 514.941406 389.097656 C 522.527344 395.617188 531.890625 400.238281 542.023438 402.46875 L 882.5 402.46875 C 893.441406 403.453125 904.046875 406.226562 914.019531 410.714844 C 925.667969 415.957031 936.050781 423.332031 944.886719 432.632812 C 945.070312 432.828125 945.070312 433.128906 944.890625 433.324219 C 944.707031 433.515625 944.40625 433.539062 944.199219 433.371094 C 933.175781 424.351562 920.792969 417.699219 907.394531 413.601562 C 899.179688 411.085938 890.632812 409.570312 882.023438 409.089844 L 548.210938 409.082031 C 540.941406 410.269531 533.832031 412.273438 527.074219 415.042969 C 514.761719 420.085938 503.683594 427.5625 494.15625 437.273438 C 494.058594 437.371094 493.929688 437.421875 493.796875 437.421875 C 493.691406 437.421875 493.582031 437.390625 493.492188 437.320312 C 493.289062 437.167969 493.234375 436.890625 493.359375 436.667969 C 497.480469 429.460938 502.871094 423.203125 509.378906 418.066406 C 515.601562 413.152344 522.847656 409.363281 530.46875 407.015625 C 518.851562 405.589844 507.445312 402.738281 496.535156 398.53125 C 483.941406 393.675781 472.113281 387.058594 461.378906 378.871094 Z M 461.378906 378.871094 " fill-opacity="1" fill-rule="nonzero"/><path fill="#00b04c" d="M 910.375 405.160156 C 911.535156 404.289062 912.632812 403.316406 913.636719 402.269531 C 914.785156 401.074219 915.832031 399.765625 916.742188 398.378906 C 916.816406 398.265625 916.929688 398.1875 917.0625 398.160156 C 924.660156 396.605469 932.289062 394.722656 939.730469 392.558594 C 952.796875 388.757812 965.726562 383.96875 978.15625 378.335938 C 978.394531 378.226562 978.679688 378.320312 978.804688 378.550781 C 978.933594 378.78125 978.859375 379.070312 978.640625 379.214844 C 969.859375 384.980469 960.519531 390.007812 950.882812 394.152344 C 938.351562 399.539062 925.167969 403.511719 911.667969 405.953125 L 910.734375 406.0625 C 910.714844 406.066406 910.695312 406.066406 910.675781 406.066406 C 910.472656 406.066406 910.285156 405.941406 910.207031 405.75 C 910.125 405.539062 910.191406 405.296875 910.375 405.160156 Z M 910.375 405.160156 " fill-opacity="1" fill-rule="nonzero"/><path fill="#6fcacc" d="M 935.5 405.929688 L 945.015625 405.105469 C 945.527344 405.0625 945.792969 405.703125 945.398438 406.03125 L 938.375 411.855469 C 937.523438 412.5625 936.546875 413.105469 935.5 413.453125 C 933.527344 414.109375 931.421875 414.222656 929.390625 413.785156 L 927.613281 413.398438 C 927.167969 413.300781 926.964844 412.789062 927.226562 412.421875 C 927.859375 411.527344 928.617188 410.457031 929.320312 409.464844 C 930.761719 407.4375 933.019531 406.140625 935.5 405.929688 Z M 935.5 405.929688 " fill-opacity="1" fill-rule="nonzero"/><path fill="#6fcacc" d="M 945.992188 413.734375 L 955.507812 412.914062 C 956.023438 412.867188 956.285156 413.511719 955.890625 413.839844 L 948.871094 419.664062 C 948.019531 420.371094 947.042969 420.910156 945.992188 421.261719 C 944.023438 421.917969 941.914062 422.03125 939.886719 421.589844 L 938.105469 421.207031 C 937.664062 421.109375 937.457031 420.597656 937.71875 420.226562 C 938.351562 419.332031 939.109375 418.265625 939.816406 417.273438 C 941.253906 415.242188 943.511719 413.949219 945.992188 413.734375 Z M 945.992188 413.734375 " fill-opacity="1" fill-rule="nonzero"/><path fill="#6fcacc" d="M 959.851562 425.007812 L 968.757812 428.445312 C 969.238281 428.628906 969.195312 429.320312 968.695312 429.441406 L 959.824219 431.59375 C 958.746094 431.851562 957.632812 431.910156 956.535156 431.765625 C 954.476562 431.488281 952.53125 430.664062 950.90625 429.378906 L 949.476562 428.253906 C 949.121094 427.972656 949.160156 427.421875 949.558594 427.207031 C 950.523438 426.679688 951.671875 426.054688 952.742188 425.46875 C 954.929688 424.28125 957.527344 424.109375 959.851562 425.007812 Z M 959.851562 425.007812 " fill-opacity="1" fill-rule="nonzero"/><g clip-path="url(#f95a34aabd)"><path fill="#6fcacc" d="M 941.777344 446.96875 L 937.925781 455.695312 C 937.71875 456.164062 937.027344 456.089844 936.929688 455.582031 L 935.1875 446.636719 C 934.976562 445.554688 934.96875 444.4375 935.167969 443.351562 C 935.539062 441.3125 936.453125 439.410156 937.8125 437.847656 L 939.007812 436.472656 C 939.304688 436.132812 939.851562 436.199219 940.050781 436.605469 C 940.53125 437.589844 941.105469 438.765625 941.640625 439.863281 C 942.730469 442.097656 942.78125 444.695312 941.777344 446.96875 Z M 941.777344 446.96875 " fill-opacity="1" fill-rule="nonzero"/></g><path fill="#6fcacc" d="M 929.835938 438.089844 L 925.121094 446.378906 C 924.867188 446.828125 924.1875 446.679688 924.140625 446.167969 L 923.316406 437.09375 C 923.214844 435.992188 923.320312 434.882812 923.628906 433.820312 C 924.203125 431.828125 925.304688 430.03125 926.816406 428.613281 L 928.144531 427.367188 C 928.476562 427.058594 929.015625 427.179688 929.171875 427.601562 C 929.550781 428.632812 930 429.859375 930.421875 431.003906 C 931.28125 433.335938 931.066406 435.925781 929.835938 438.089844 Z M 929.835938 438.089844 " fill-opacity="1" fill-rule="nonzero"/><path fill="#6fcacc" d="M 960.171875 444.632812 L 962.917969 453.765625 C 963.066406 454.257812 962.492188 454.648438 962.089844 454.328125 L 954.945312 448.652344 C 954.078125 447.964844 953.347656 447.121094 952.792969 446.167969 C 951.746094 444.378906 951.207031 442.339844 951.222656 440.265625 L 951.238281 438.449219 C 951.242188 437.996094 951.699219 437.691406 952.117188 437.871094 C 953.125 438.308594 954.324219 438.832031 955.445312 439.316406 C 957.726562 440.308594 959.457031 442.253906 960.171875 444.632812 Z M 960.171875 444.632812 " fill-opacity="1" fill-rule="nonzero"/><g clip-path="url(#cd86d708e7)"><path fill="#6fcacc" d="M 503.636719 447.773438 L 499.164062 456.199219 C 498.921875 456.652344 498.238281 456.527344 498.179688 456.015625 L 497.085938 446.96875 C 496.957031 445.871094 497.027344 444.757812 497.304688 443.6875 C 497.820312 441.683594 498.871094 439.851562 500.339844 438.390625 L 501.632812 437.105469 C 501.953125 436.785156 502.496094 436.890625 502.664062 437.3125 C 503.070312 438.328125 503.558594 439.542969 504.011719 440.675781 C 504.941406 442.980469 504.800781 445.578125 503.636719 447.773438 Z M 503.636719 447.773438 " fill-opacity="1" fill-rule="nonzero"/></g><path fill="#6fcacc" d="M 515.558594 437.488281 L 513.378906 446.773438 C 513.261719 447.273438 512.566406 447.324219 512.378906 446.847656 L 509.019531 438.371094 C 508.613281 437.34375 508.402344 436.25 508.398438 435.144531 C 508.386719 433.070312 508.933594 431.035156 509.984375 429.25 L 510.90625 427.679688 C 511.136719 427.289062 511.6875 427.253906 511.957031 427.617188 C 512.609375 428.5 513.390625 429.550781 514.117188 430.527344 C 515.601562 432.523438 516.128906 435.070312 515.558594 437.488281 Z M 515.558594 437.488281 " fill-opacity="1" fill-rule="nonzero"/><path fill="#6fcacc" d="M 483.925781 449.292969 L 475.753906 454.226562 C 475.3125 454.496094 474.792969 454.035156 475 453.566406 L 478.722656 445.242188 C 479.171875 444.234375 479.808594 443.316406 480.59375 442.539062 C 482.070312 441.085938 483.914062 440.050781 485.925781 439.550781 L 487.691406 439.113281 C 488.132812 439 488.542969 439.371094 488.472656 439.816406 C 488.300781 440.898438 488.09375 442.191406 487.902344 443.394531 C 487.507812 445.847656 486.054688 448.003906 483.925781 449.292969 Z M 483.925781 449.292969 " fill-opacity="1" fill-rule="nonzero"/><path fill="#6fcacc" d="M 481.046875 431.828125 L 471.664062 430.039062 C 471.160156 429.945312 471.078125 429.253906 471.550781 429.046875 L 479.890625 425.34375 C 480.902344 424.894531 481.988281 424.640625 483.09375 424.585938 C 485.167969 424.492188 487.230469 424.953125 489.0625 425.925781 L 490.667969 426.78125 C 491.070312 426.992188 491.128906 427.539062 490.777344 427.824219 C 489.921875 428.515625 488.902344 429.335938 487.953125 430.101562 C 486.019531 431.664062 483.492188 432.296875 481.046875 431.828125 Z M 481.046875 431.828125 " fill-opacity="1" fill-rule="nonzero"/><path fill="#6fcacc" d="M 489.898438 420.171875 L 482.683594 413.921875 C 482.292969 413.585938 482.570312 412.949219 483.082031 413.003906 L 492.160156 413.984375 C 493.261719 414.101562 494.328125 414.425781 495.3125 414.933594 C 497.152344 415.890625 498.703125 417.320312 499.796875 419.082031 L 500.757812 420.625 C 501 421.011719 500.773438 421.511719 500.324219 421.582031 C 499.242188 421.75 497.945312 421.949219 496.742188 422.136719 C 494.28125 422.519531 491.777344 421.800781 489.898438 420.171875 Z M 489.898438 420.171875 " fill-opacity="1" fill-rule="nonzero"/><path fill="#6fcacc" d="M 501.3125 412.097656 L 494.089844 407.191406 C 493.699219 406.929688 493.882812 406.320312 494.355469 406.316406 L 502.703125 406.234375 C 503.714844 406.226562 504.71875 406.402344 505.667969 406.761719 C 507.441406 407.433594 509.003906 408.566406 510.1875 410.046875 L 511.226562 411.347656 C 511.484375 411.671875 511.335938 412.152344 510.933594 412.265625 C 509.96875 412.53125 508.8125 412.851562 507.738281 413.152344 C 505.542969 413.761719 503.195312 413.375 501.3125 412.097656 Z M 501.3125 412.097656 " fill-opacity="1" fill-rule="nonzero"/><g clip-path="url(#76ac77a5a7)"><path fill="#42c3d2" d="M 984.871094 359.179688 C 987.152344 355.945312 990.390625 354.414062 992.703125 353.699219 L 993.242188 353.535156 L 993.347656 354.085938 C 993.820312 356.566406 994.492188 362.863281 990.542969 367.773438 C 989.492188 369.082031 986.625 372.011719 984.464844 372.011719 C 984.136719 372.011719 983.820312 371.941406 983.535156 371.789062 C 982.933594 371.472656 982.492188 370.792969 982.257812 369.820312 C 981.648438 367.277344 982.457031 362.605469 984.871094 359.179688 Z M 984.871094 359.179688 " fill-opacity="1" fill-rule="nonzero"/></g><path fill="#42c3d2" d="M 1000.710938 374.136719 C 1004.203125 376.007812 1006.113281 379.03125 1007.101562 381.242188 L 1007.332031 381.753906 L 1006.792969 381.925781 C 1004.382812 382.691406 998.203125 384.113281 992.84375 380.789062 C 991.421875 379.90625 988.164062 377.417969 987.902344 375.273438 C 987.863281 374.949219 987.894531 374.628906 988.011719 374.328125 C 988.253906 373.691406 988.878906 373.175781 989.816406 372.824219 C 992.269531 371.914062 997.015625 372.15625 1000.710938 374.136719 Z M 1000.710938 374.136719 " fill-opacity="1" fill-rule="nonzero"/><path fill="#42c3d2" d="M 967.539062 365.617188 C 969.066406 361.96875 971.898438 359.773438 974.003906 358.578125 L 974.492188 358.300781 L 974.714844 358.820312 C 975.710938 361.136719 977.730469 367.140625 974.933594 372.789062 C 974.191406 374.289062 972.027344 377.765625 969.914062 378.234375 C 969.59375 378.304688 969.273438 378.304688 968.960938 378.21875 C 968.304688 378.039062 967.726562 377.46875 967.289062 376.570312 C 966.144531 374.21875 965.921875 369.480469 967.539062 365.617188 Z M 967.539062 365.617188 " fill-opacity="1" fill-rule="nonzero"/><path fill="#42c3d2" d="M 953.449219 371.339844 C 955.203125 367.789062 958.160156 365.777344 960.335938 364.714844 L 960.84375 364.464844 L 961.035156 364.996094 C 961.886719 367.371094 963.527344 373.488281 960.390625 378.953125 C 959.554688 380.40625 957.179688 383.742188 955.042969 384.078125 C 954.71875 384.128906 954.398438 384.109375 954.089844 384.003906 C 953.449219 383.785156 952.90625 383.179688 952.523438 382.253906 C 951.527344 379.839844 951.597656 375.097656 953.449219 371.339844 Z M 953.449219 371.339844 " fill-opacity="1" fill-rule="nonzero"/><path fill="#42c3d2" d="M 976.015625 397.730469 C 979.199219 400.089844 980.648438 403.359375 981.304688 405.6875 L 981.457031 406.226562 L 980.902344 406.320312 C 978.40625 406.726562 972.085938 407.238281 967.265625 403.175781 C 965.984375 402.09375 963.125 399.160156 963.175781 397.003906 C 963.1875 396.675781 963.261719 396.363281 963.421875 396.082031 C 963.753906 395.488281 964.445312 395.066406 965.425781 394.855469 C 967.988281 394.3125 972.648438 395.238281 976.015625 397.730469 Z M 976.015625 397.730469 " fill-opacity="1" fill-rule="nonzero"/><path fill="#42c3d2" d="M 986.679688 386.273438 C 990.175781 388.136719 992.097656 391.15625 993.089844 393.359375 L 993.320312 393.875 L 992.785156 394.046875 C 990.375 394.816406 984.199219 396.257812 978.832031 392.949219 C 977.40625 392.066406 974.140625 389.585938 973.875 387.445312 C 973.835938 387.121094 973.863281 386.800781 973.980469 386.496094 C 974.21875 385.863281 974.84375 385.34375 975.78125 384.992188 C 978.234375 384.074219 982.980469 384.300781 986.679688 386.273438 Z M 986.679688 386.273438 " fill-opacity="1" fill-rule="nonzero"/><path fill="#42c3d2" d="M 505.546875 367.34375 C 505.761719 363.390625 507.691406 360.378906 509.273438 358.546875 L 509.640625 358.121094 L 510.023438 358.535156 C 511.742188 360.386719 515.660156 365.367188 514.921875 371.621094 C 514.726562 373.285156 513.855469 377.285156 512.023438 378.433594 C 511.742188 378.605469 511.441406 378.714844 511.117188 378.738281 C 510.441406 378.789062 509.703125 378.445312 508.988281 377.742188 C 507.121094 375.914062 505.324219 371.523438 505.546875 367.34375 Z M 505.546875 367.34375 " fill-opacity="1" fill-rule="nonzero"/><path fill="#42c3d2" d="M 516.914062 379.03125 C 517.125 375.078125 519.054688 372.066406 520.636719 370.234375 L 521.007812 369.808594 L 521.390625 370.222656 C 523.109375 372.074219 527.023438 377.054688 526.289062 383.308594 C 526.089844 384.972656 525.21875 388.972656 523.386719 390.121094 C 523.109375 390.292969 522.808594 390.402344 522.484375 390.425781 L 522.480469 390.425781 C 521.804688 390.476562 521.070312 390.132812 520.351562 389.429688 C 518.484375 387.601562 516.6875 383.210938 516.914062 379.03125 Z M 516.914062 379.03125 " fill-opacity="1" fill-rule="nonzero"/><path fill="#42c3d2" d="M 494.175781 366.21875 C 493.082031 363.398438 493.480469 360.695312 494.007812 358.921875 L 494.132812 358.507812 L 494.527344 358.675781 C 496.308594 359.429688 500.601562 361.675781 502.054688 366.265625 C 502.441406 367.488281 503.089844 370.550781 502.171875 371.921875 C 502.03125 372.128906 501.855469 372.300781 501.636719 372.417969 C 501.183594 372.664062 500.5625 372.65625 499.839844 372.390625 C 497.964844 371.703125 495.332031 369.203125 494.175781 366.21875 Z M 494.175781 366.21875 " fill-opacity="1" fill-rule="nonzero"/><path fill="#42c3d2" d="M 477.777344 374.0625 C 477.988281 370.113281 479.917969 367.101562 481.5 365.269531 L 481.871094 364.84375 L 482.253906 365.257812 C 483.972656 367.109375 487.886719 372.089844 487.152344 378.34375 C 486.953125 380.007812 486.082031 384.007812 484.25 385.152344 C 483.972656 385.328125 483.671875 385.4375 483.347656 385.460938 C 482.667969 385.511719 481.933594 385.164062 481.21875 384.464844 C 479.347656 382.636719 477.550781 378.246094 477.777344 374.0625 Z M 477.777344 374.0625 " fill-opacity="1" fill-rule="nonzero"/><path fill="#42c3d2" d="M 463.761719 367.96875 C 463.359375 364.035156 464.800781 360.757812 466.078125 358.707031 L 466.378906 358.226562 L 466.820312 358.578125 C 468.804688 360.140625 473.445312 364.457031 473.6875 370.75 C 473.75 372.425781 473.507812 376.511719 471.875 377.925781 C 471.625 378.144531 471.34375 378.296875 471.027344 378.371094 C 470.367188 378.523438 469.585938 378.296875 468.769531 377.714844 C 466.640625 376.195312 464.183594 372.136719 463.761719 367.96875 Z M 463.761719 367.96875 " fill-opacity="1" fill-rule="nonzero"/><g clip-path="url(#7738915bf2)"><path fill="#42c3d2" d="M 446.839844 363.230469 C 445.625 359.460938 446.351562 355.960938 447.175781 353.6875 L 447.367188 353.15625 L 447.875 353.40625 C 450.140625 354.523438 455.578125 357.78125 457.128906 363.886719 C 457.539062 365.511719 458.15625 369.558594 456.851562 371.28125 C 456.65625 371.542969 456.414062 371.753906 456.117188 371.890625 C 455.503906 372.175781 454.691406 372.117188 453.773438 371.71875 C 451.375 370.675781 448.125 367.214844 446.839844 363.230469 Z M 446.839844 363.230469 " fill-opacity="1" fill-rule="nonzero"/></g><path fill="#42c3d2" d="M 466.390625 404.105469 C 462.449219 404.535156 459.160156 403.121094 457.09375 401.855469 L 456.613281 401.5625 L 456.960938 401.117188 C 458.511719 399.125 462.804688 394.464844 469.105469 394.179688 C 470.78125 394.101562 474.878906 394.316406 476.308594 395.9375 C 476.523438 396.183594 476.679688 396.460938 476.753906 396.777344 L 476.757812 396.777344 C 476.914062 397.4375 476.691406 398.21875 476.117188 399.035156 C 474.609375 401.171875 470.558594 403.652344 466.390625 404.105469 Z M 466.390625 404.105469 " fill-opacity="1" fill-rule="nonzero"/><path fill="#42c3d2" d="M 455.992188 394.738281 C 452.121094 395.574219 448.699219 394.511719 446.511719 393.46875 L 446.003906 393.226562 L 446.300781 392.75 C 447.636719 390.605469 451.417969 385.519531 457.652344 384.578125 C 459.3125 384.328125 463.410156 384.113281 465 385.574219 C 465.242188 385.796875 465.425781 386.058594 465.535156 386.363281 L 465.535156 386.367188 C 465.761719 387.003906 465.621094 387.804688 465.132812 388.679688 C 463.859375 390.960938 460.089844 393.851562 455.992188 394.738281 Z M 455.992188 394.738281 " fill-opacity="1" fill-rule="nonzero"/><path fill="#42c3d2" d="M 439.542969 374.644531 C 435.992188 376.398438 433.980469 379.359375 432.921875 381.535156 L 432.675781 382.039062 L 433.207031 382.230469 C 435.589844 383.074219 441.71875 384.695312 447.183594 381.550781 C 448.636719 380.714844 451.976562 378.332031 452.304688 376.199219 C 452.355469 375.875 452.335938 375.558594 452.230469 375.25 C 452.007812 374.609375 451.402344 374.070312 450.472656 373.691406 C 448.050781 372.699219 443.300781 372.785156 439.542969 374.644531 Z M 439.542969 374.644531 " fill-opacity="1" fill-rule="nonzero"/></svg>