<svg xmlns="http://www.w3.org/2000/svg" xmlns:xlink="http://www.w3.org/1999/xlink" width="200" zoomAndPan="magnify" viewBox="0 0 100 50" height="100" preserveAspectRatio="xMidYMid meet" version="1.0"><defs><clipPath id="063c75112a"><path d="M 874 540 L 894 540 L 894 567 L 874 567 Z M 874 540 " clip-rule="nonzero"/></clipPath></defs><path fill="#88ce0d" d="M 612.25 278.152344 C 602.039062 269.027344 599.089844 255.503906 599.089844 255.503906 C 599.253906 263.292969 605.476562 272.867188 611.183594 280.039062 L 611.148438 280.085938 C 611.148438 280.085938 581.792969 275.144531 596.644531 243.035156 C 596.632812 243.019531 626.25 252.316406 612.25 278.152344 Z M 612.25 278.152344 " fill-opacity="1" fill-rule="nonzero"/><path fill="#88ce0d" d="M 541.765625 349.386719 C 548.203125 339.757812 559.191406 335.683594 559.191406 335.683594 C 552.667969 336.746094 545.414062 343.085938 540.0625 348.6875 L 540.015625 348.6875 C 540.015625 348.6875 540.6875 323.515625 569.332031 332.167969 C 569.332031 332.164062 565.046875 358.054688 541.765625 349.386719 Z M 541.765625 349.386719 " fill-opacity="1" fill-rule="nonzero"/><path fill="#88ce0d" d="M 568.214844 375.824219 C 574.265625 359.980469 588.582031 350.589844 588.582031 350.589844 C 579.652344 354.230469 571.34375 365.660156 565.578125 375.425781 L 565.507812 375.425781 C 565.507812 375.425781 558.238281 339.273438 601.941406 342.21875 C 601.941406 342.21875 604.316406 380.570312 568.214844 375.824219 Z M 568.214844 375.824219 " fill-opacity="1" fill-rule="nonzero"/><path fill="#88ce0d" d="M 611.554688 385.820312 C 624.113281 381.097656 637.203125 384.664062 637.203125 384.664062 C 630.363281 381.273438 619.234375 382.328125 610.417969 384.023438 L 610.390625 383.972656 C 610.390625 383.972656 628.007812 360.734375 649.152344 388.207031 C 649.144531 388.207031 627.628906 409.703125 611.554688 385.820312 Z M 611.554688 385.820312 " fill-opacity="1" fill-rule="nonzero"/><path fill="#88ce0d" d="M 683.984375 364.839844 C 669.554688 356.402344 662.738281 340.941406 662.738281 340.941406 C 664.828125 350.222656 674.589844 360.164062 683.164062 367.367188 L 683.164062 367.433594 C 683.164062 367.433594 646.847656 368.632812 656.824219 326.582031 C 656.78125 326.597656 694.472656 330.542969 683.984375 364.839844 Z M 683.984375 364.839844 " fill-opacity="1" fill-rule="nonzero"/><path fill="#88ce0d" d="M 742.613281 364.191406 C 728.226562 351.664062 723.855469 332.875 723.855469 332.875 C 724.230469 343.726562 733.066406 356.945312 741.140625 366.835938 L 741.097656 366.90625 C 741.097656 366.90625 700.117188 360.5625 720.214844 315.53125 C 720.214844 315.53125 761.652344 327.957031 742.613281 364.191406 Z M 742.613281 364.191406 " fill-opacity="1" fill-rule="nonzero"/><path fill="#88ce0d" d="M 644.378906 453.664062 C 650.351562 461.261719 650.753906 470.992188 650.753906 470.992188 C 651.589844 465.5625 648.445312 458.167969 645.363281 452.464844 L 645.390625 452.4375 C 645.390625 452.4375 665.15625 459.453125 650.925781 479.933594 C 650.925781 479.945312 631.507812 469.871094 644.378906 453.664062 Z M 644.378906 453.664062 " fill-opacity="1" fill-rule="nonzero"/><path fill="#88ce0d" d="M 721.667969 499.351562 C 733.035156 488.199219 748.945312 485.792969 748.945312 485.792969 C 739.898438 485.394531 728.316406 491.882812 719.5625 497.953125 L 719.507812 497.914062 C 719.507812 497.914062 727.476562 464.230469 763.617188 483.90625 C 763.617188 483.90625 750.574219 517.566406 721.667969 499.351562 Z M 721.667969 499.351562 " fill-opacity="1" fill-rule="nonzero"/><path fill="#88ce0d" d="M 811.722656 465.0625 C 819.386719 469.03125 823.316406 476.816406 823.316406 476.816406 C 821.992188 472.066406 816.695312 467.222656 812.085938 463.742188 L 812.085938 463.703125 C 812.085938 463.703125 830.777344 462.113281 826.761719 484.050781 C 826.769531 484.0625 807.238281 483.019531 811.722656 465.0625 Z M 811.722656 465.0625 " fill-opacity="1" fill-rule="nonzero"/><path fill="#88ce0d" d="M 840.425781 532.863281 C 839.660156 522.296875 845.292969 513.191406 845.292969 513.191406 C 841.195312 517.609375 839.503906 526.269531 838.8125 533.328125 L 838.769531 533.328125 C 838.769531 533.328125 825.117188 514.804688 850.644531 504.925781 C 850.652344 504.933594 862.109375 526.039062 840.425781 532.863281 Z M 840.425781 532.863281 " fill-opacity="1" fill-rule="nonzero"/><g clip-path="url(#063c75112a)"><path fill="#88ce0d" d="M 878.28125 566.753906 C 878.757812 556.449219 885.21875 548.277344 885.21875 548.277344 C 880.757812 552.078125 878.136719 560.277344 876.667969 567.019531 L 876.625 567.019531 C 876.625 567.019531 865.519531 547.546875 891.351562 540.898438 C 891.335938 540.902344 900.027344 562.613281 878.28125 566.753906 Z M 878.28125 566.753906 " fill-opacity="1" fill-rule="nonzero"/></g><path fill="#88ce0d" d="M 846.28125 393.40625 C 867.601562 395.875 883.597656 410.503906 883.597656 410.503906 C 876.351562 400.675781 859.742188 394.03125 845.964844 389.996094 L 845.964844 389.898438 C 845.964844 389.898438 888.03125 369.734375 898.003906 424.292969 C 898 424.3125 851.664062 439.132812 846.28125 393.40625 Z M 846.28125 393.40625 " fill-opacity="1" fill-rule="nonzero"/></svg>